<svg xmlns="http://www.w3.org/2000/svg" xmlns:xlink="http://www.w3.org/1999/xlink" width="375" zoomAndPan="magnify" viewBox="0 0 281.25 112.499997" height="150" preserveAspectRatio="xMidYMid meet" version="1.0"><defs><g/><clipPath id="5ea6f3ec60"><rect x="0" width="136" y="0" height="62"/></clipPath><clipPath id="493e732136"><path d="M 0.1875 24 L 220.011719 24 L 220.011719 71 L 0.1875 71 Z M 0.1875 24 " clip-rule="nonzero"/></clipPath><clipPath id="c90f7d34bc"><path d="M 0.1875 2 L 32 2 L 32 38 L 0.1875 38 Z M 0.1875 2 " clip-rule="nonzero"/></clipPath><clipPath id="0b300b7f39"><rect x="0" width="221" y="0" height="47"/></clipPath><clipPath id="323b947f6c"><path d="M 75 16 L 114 16 L 114 62.636719 L 75 62.636719 Z M 75 16 " clip-rule="nonzero"/></clipPath><clipPath id="eb91c0e952"><path d="M 74 15 L 114.515625 15 L 114.515625 62.636719 L 74 62.636719 Z M 74 15 " clip-rule="nonzero"/></clipPath><clipPath id="ed20e87a4a"><path d="M 60.457031 3 L 107 3 L 107 20 L 60.457031 20 Z M 60.457031 3 " clip-rule="nonzero"/></clipPath><clipPath id="eeaca90907"><path d="M 70 0.132812 L 95 0.132812 L 95 13 L 70 13 Z M 70 0.132812 " clip-rule="nonzero"/></clipPath><clipPath id="a1404c8c48"><rect x="0" width="221" y="0" height="105"/></clipPath></defs><g transform="matrix(1, 0, 0, 1, 50, 3)"><g clip-path="url(#a1404c8c48)"><g transform="matrix(1, 0, 0, 1, 26, 43)"><g clip-path="url(#5ea6f3ec60)"><g fill="#75b523" fill-opacity="1"><g transform="translate(64.712976, 22.596339)"><g/></g></g><g fill="#75b523" fill-opacity="1"><g transform="translate(2.008355, 50.577329)"><g><path d="M 8.132812 -12.257812 C 6.816406 -12.257812 5.789062 -11.828125 5.054688 -10.96875 C 4.289062 -10.074219 3.90625 -8.820312 3.90625 -7.203125 C 3.90625 -5.589844 4.261719 -4.332031 4.980469 -3.425781 C 5.65625 -2.574219 6.699219 -2.148438 8.109375 -2.148438 C 8.683594 -2.148438 9.226562 -2.199219 9.746094 -2.296875 C 10.285156 -2.398438 10.820312 -2.527344 11.347656 -2.683594 L 12.320312 -2.96875 L 12.320312 0.140625 L 11.828125 0.324219 C 11.242188 0.542969 10.640625 0.707031 10.019531 0.808594 C 9.40625 0.90625 8.683594 0.957031 7.847656 0.957031 C 6.238281 0.957031 4.882812 0.617188 3.78125 -0.0625 C 2.664062 -0.75 1.828125 -1.722656 1.273438 -2.984375 C 0.742188 -4.199219 0.472656 -5.609375 0.472656 -7.222656 C 0.472656 -8.789062 0.765625 -10.179688 1.34375 -11.394531 C 1.941406 -12.640625 2.824219 -13.613281 3.988281 -14.316406 C 5.144531 -15.015625 6.53125 -15.367188 8.152344 -15.367188 C 9.789062 -15.367188 11.230469 -15.054688 12.464844 -14.4375 L 13.128906 -14.105469 L 11.765625 -11.230469 L 11.085938 -11.539062 C 10.675781 -11.726562 10.214844 -11.894531 9.703125 -12.046875 C 9.226562 -12.1875 8.703125 -12.257812 8.132812 -12.257812 Z M 8.132812 -13.769531 C 8.851562 -13.769531 9.515625 -13.679688 10.132812 -13.496094 C 10.710938 -13.328125 11.238281 -13.132812 11.714844 -12.917969 L 11.398438 -12.226562 L 10.714844 -12.550781 L 11.441406 -14.085938 L 12.125 -13.761719 L 11.789062 -13.085938 C 10.765625 -13.597656 9.550781 -13.851562 8.152344 -13.851562 C 6.8125 -13.851562 5.683594 -13.574219 4.769531 -13.023438 C 3.863281 -12.476562 3.175781 -11.714844 2.710938 -10.742188 C 2.230469 -9.734375 1.988281 -8.5625 1.988281 -7.222656 C 1.988281 -5.824219 2.210938 -4.613281 2.660156 -3.59375 C 3.085938 -2.621094 3.726562 -1.875 4.574219 -1.351562 C 5.433594 -0.820312 6.527344 -0.554688 7.847656 -0.554688 C 8.601562 -0.554688 9.242188 -0.597656 9.773438 -0.6875 C 10.296875 -0.773438 10.804688 -0.90625 11.296875 -1.09375 L 11.5625 -0.382812 L 10.804688 -0.382812 L 10.804688 -1.957031 L 11.5625 -1.957031 L 11.773438 -1.230469 C 11.199219 -1.0625 10.617188 -0.921875 10.027344 -0.808594 C 9.417969 -0.695312 8.777344 -0.636719 8.109375 -0.636719 C 6.214844 -0.636719 4.773438 -1.253906 3.796875 -2.484375 C 2.859375 -3.664062 2.390625 -5.238281 2.390625 -7.203125 C 2.390625 -9.191406 2.894531 -10.777344 3.90625 -11.953125 C 4.945312 -13.164062 6.351562 -13.769531 8.132812 -13.769531 Z M 8.132812 -13.769531 "/></g></g></g><g fill="#75b523" fill-opacity="1"><g transform="translate(17.863746, 50.577329)"><g><path d="M 10.292969 0.273438 L 8.554688 -4.183594 L 9.261719 -4.460938 L 9.261719 -3.703125 L 3.550781 -3.703125 L 3.550781 -4.460938 L 4.257812 -4.1875 L 2.355469 0.757812 L -1.105469 0.757812 L 5.113281 -15.222656 L 7.78125 -15.222656 L 13.976562 0.757812 L 10.480469 0.757812 Z M 11.703125 -0.273438 L 10.996094 0 L 10.996094 -0.757812 L 12.875 -0.757812 L 12.875 0 L 12.167969 0.273438 L 6.558594 -14.195312 L 7.265625 -14.46875 L 7.265625 -13.710938 L 5.628906 -13.710938 L 5.628906 -14.46875 L 6.335938 -14.191406 L 0.707031 0.273438 L 0 0 L 0 -0.757812 L 1.835938 -0.757812 L 1.835938 0 L 1.128906 -0.273438 L 3.03125 -5.214844 L 9.777344 -5.214844 Z M 8.007812 -5.808594 L 6.394531 -10.167969 C 6.351562 -10.285156 6.28125 -10.484375 6.183594 -10.777344 C 6.085938 -11.070312 5.992188 -11.371094 5.902344 -11.683594 C 5.816406 -11.976562 5.75 -12.199219 5.699219 -12.351562 L 6.417969 -12.589844 L 7.148438 -12.402344 C 7.039062 -11.976562 6.925781 -11.5625 6.8125 -11.160156 C 6.691406 -10.75 6.589844 -10.421875 6.503906 -10.179688 L 4.863281 -5.808594 L 4.15625 -6.074219 L 4.15625 -6.832031 L 8.714844 -6.832031 L 8.714844 -6.074219 Z M 9.804688 -5.316406 L 3.0625 -5.316406 L 5.078125 -10.683594 C 5.152344 -10.898438 5.246094 -11.195312 5.355469 -11.578125 C 5.46875 -11.96875 5.578125 -12.371094 5.683594 -12.78125 L 6.324219 -15.261719 L 7.132812 -12.828125 C 7.191406 -12.660156 7.265625 -12.417969 7.355469 -12.105469 C 7.441406 -11.8125 7.527344 -11.527344 7.617188 -11.257812 C 7.710938 -10.984375 7.773438 -10.796875 7.8125 -10.695312 L 9.425781 -6.335938 Z M 9.804688 -5.316406 "/></g></g></g><g fill="#75b523" fill-opacity="1"><g transform="translate(33.860327, 50.577329)"><g><path d="M 13.378906 0.757812 L 10.847656 0.757812 L 2.914062 -11.554688 L 3.550781 -11.964844 L 3.550781 -11.207031 L 3.46875 -11.207031 L 3.46875 -11.964844 L 4.226562 -12.007812 L 4.328125 -10.253906 C 4.367188 -9.539062 4.390625 -8.804688 4.390625 -8.050781 L 4.390625 0.757812 L 1.199219 0.757812 L 1.199219 -15.164062 L 4.46875 -15.164062 L 12.378906 -2.890625 L 11.742188 -2.480469 L 11.742188 -3.238281 L 11.824219 -3.238281 L 11.824219 -2.480469 L 11.070312 -2.433594 C 11.054688 -2.652344 11.039062 -2.980469 11.015625 -3.414062 L 10.957031 -4.820312 C 10.9375 -5.335938 10.925781 -5.820312 10.925781 -6.273438 L 10.925781 -15.164062 L 14.132812 -15.164062 L 14.132812 0.757812 Z M 13.378906 -0.757812 L 13.378906 0 L 12.621094 0 L 12.621094 -14.40625 L 13.378906 -14.40625 L 13.378906 -13.648438 L 11.683594 -13.648438 L 11.683594 -14.40625 L 12.441406 -14.40625 L 12.441406 -6.273438 C 12.441406 -5.839844 12.449219 -5.378906 12.46875 -4.886719 L 12.53125 -3.484375 C 12.550781 -3.058594 12.566406 -2.742188 12.578125 -2.527344 L 12.628906 -1.726562 L 11.332031 -1.726562 L 3.417969 -13.996094 L 4.054688 -14.40625 L 4.054688 -13.648438 L 1.957031 -13.648438 L 1.957031 -14.40625 L 2.714844 -14.40625 L 2.714844 0 L 1.957031 0 L 1.957031 -0.757812 L 3.632812 -0.757812 L 3.632812 0 L 2.875 0 L 2.875 -8.050781 C 2.875 -8.777344 2.855469 -9.480469 2.816406 -10.167969 L 2.667969 -12.722656 L 3.964844 -12.722656 L 11.894531 -0.410156 L 11.257812 0 L 11.257812 -0.757812 Z M 13.378906 -0.757812 "/></g></g></g><g fill="#75b523" fill-opacity="1"><g transform="translate(52.297436, 50.577329)"><g/></g></g><g fill="#75b523" fill-opacity="1"><g transform="translate(59.607597, 50.577329)"><g><path d="M 7.605469 0.265625 L 2.863281 -12.363281 L 3.570312 -12.632812 L 3.570312 -11.875 L 3.492188 -11.875 L 3.492188 -12.632812 L 4.242188 -12.703125 C 4.285156 -12.273438 4.320312 -11.695312 4.347656 -10.976562 C 4.375 -10.257812 4.390625 -9.511719 4.390625 -8.738281 L 4.390625 0.757812 L 1.199219 0.757812 L 1.199219 -15.164062 L 5.164062 -15.164062 L 9.789062 -2.871094 L 9.078125 -2.601562 L 9.078125 -3.359375 L 9.160156 -3.359375 L 9.160156 -2.601562 L 8.453125 -2.875 L 13.160156 -15.164062 L 17.101562 -15.164062 L 17.101562 0.757812 L 13.792969 0.757812 L 13.792969 -8.859375 C 13.792969 -9.570312 13.808594 -10.273438 13.84375 -10.972656 C 13.875 -11.664062 13.90625 -12.222656 13.933594 -12.65625 L 14.6875 -12.609375 L 14.6875 -11.855469 L 14.609375 -11.855469 L 14.609375 -12.609375 L 15.316406 -12.339844 L 10.328125 0.757812 L 7.789062 0.757812 Z M 9.023438 -0.265625 L 8.3125 0 L 8.3125 -0.757812 L 9.804688 -0.757812 L 9.804688 0 L 9.097656 -0.269531 L 14.085938 -13.367188 L 15.496094 -13.367188 L 15.445312 -12.5625 C 15.417969 -12.136719 15.386719 -11.582031 15.355469 -10.898438 C 15.320312 -10.226562 15.304688 -9.546875 15.304688 -8.859375 L 15.304688 0 L 14.546875 0 L 14.546875 -0.757812 L 16.34375 -0.757812 L 16.34375 0 L 15.585938 0 L 15.585938 -14.40625 L 16.34375 -14.40625 L 16.34375 -13.648438 L 13.679688 -13.648438 L 13.679688 -14.40625 L 14.386719 -14.136719 L 9.679688 -1.847656 L 8.554688 -1.847656 L 3.933594 -14.140625 L 4.640625 -14.40625 L 4.640625 -13.648438 L 1.957031 -13.648438 L 1.957031 -14.40625 L 2.714844 -14.40625 L 2.714844 0 L 1.957031 0 L 1.957031 -0.757812 L 3.632812 -0.757812 L 3.632812 0 L 2.875 0 L 2.875 -8.738281 C 2.875 -9.492188 2.863281 -10.222656 2.835938 -10.917969 C 2.808594 -11.609375 2.777344 -12.15625 2.738281 -12.558594 L 2.65625 -13.386719 L 4.097656 -13.386719 Z M 9.023438 -0.265625 "/></g></g></g><g fill="#75b523" fill-opacity="1"><g transform="translate(81.00965, 50.577329)"><g><path d="M 6.011719 0.757812 L 0.0507812 0.757812 L 0.0507812 -1.652344 L 2.335938 -2.171875 L 2.503906 -1.433594 L 1.746094 -1.433594 L 1.746094 -12.953125 L 2.503906 -12.953125 L 2.328125 -12.21875 L 0.0507812 -12.757812 L 0.0507812 -15.164062 L 6.769531 -15.164062 L 6.769531 -12.757812 L 4.492188 -12.21875 L 4.316406 -12.953125 L 5.074219 -12.953125 L 5.074219 -1.433594 L 4.316406 -1.433594 L 4.484375 -2.171875 L 6.769531 -1.652344 L 6.769531 0.757812 Z M 6.011719 -0.757812 L 6.011719 0 L 5.257812 0 L 5.257812 -1.050781 L 6.011719 -1.050781 L 5.847656 -0.3125 L 3.5625 -0.828125 L 3.5625 -13.550781 L 5.835938 -14.09375 L 6.011719 -13.359375 L 5.257812 -13.359375 L 5.257812 -14.40625 L 6.011719 -14.40625 L 6.011719 -13.648438 L 0.808594 -13.648438 L 0.808594 -14.40625 L 1.5625 -14.40625 L 1.5625 -13.359375 L 0.808594 -13.359375 L 0.980469 -14.09375 L 3.257812 -13.550781 L 3.257812 -0.828125 L 0.972656 -0.3125 L 0.808594 -1.050781 L 1.5625 -1.050781 L 1.5625 0 L 0.808594 0 L 0.808594 -0.757812 Z M 6.011719 -0.757812 "/></g></g></g><g fill="#75b523" fill-opacity="1"><g transform="translate(90.955334, 50.577329)"><g><path d="M 14.253906 -7.34375 C 14.253906 -4.691406 13.511719 -2.671875 12.027344 -1.292969 C 10.554688 0.0742188 8.539062 0.757812 5.972656 0.757812 L 1.199219 0.757812 L 1.199219 -15.164062 L 6.394531 -15.164062 C 7.957031 -15.164062 9.324219 -14.867188 10.5 -14.277344 C 11.707031 -13.667969 12.640625 -12.769531 13.292969 -11.585938 C 13.933594 -10.421875 14.253906 -9.007812 14.253906 -7.34375 Z M 12.742188 -7.34375 C 12.742188 -8.75 12.484375 -9.917969 11.96875 -10.851562 C 11.464844 -11.765625 10.75 -12.457031 9.820312 -12.921875 C 8.855469 -13.40625 7.714844 -13.648438 6.394531 -13.648438 L 1.957031 -13.648438 L 1.957031 -14.40625 L 2.714844 -14.40625 L 2.714844 0 L 1.957031 0 L 1.957031 -0.757812 L 5.972656 -0.757812 C 8.140625 -0.757812 9.816406 -1.304688 10.996094 -2.402344 C 12.160156 -3.480469 12.742188 -5.128906 12.742188 -7.34375 Z M 10.824219 -7.285156 C 10.824219 -8.988281 10.429688 -10.214844 9.640625 -10.960938 C 8.835938 -11.71875 7.667969 -12.097656 6.132812 -12.097656 L 3.773438 -12.097656 L 3.773438 -12.851562 L 4.53125 -12.851562 L 4.53125 -1.554688 L 3.773438 -1.554688 L 3.773438 -2.308594 L 5.730469 -2.308594 C 7.476562 -2.308594 8.761719 -2.714844 9.589844 -3.527344 C 10.414062 -4.332031 10.824219 -5.585938 10.824219 -7.285156 Z M 12.339844 -7.285156 C 12.339844 -5.160156 11.773438 -3.550781 10.648438 -2.445312 C 9.527344 -1.347656 7.886719 -0.796875 5.730469 -0.796875 L 3.015625 -0.796875 L 3.015625 -13.609375 L 6.132812 -13.609375 C 8.070312 -13.609375 9.585938 -13.09375 10.679688 -12.0625 C 11.785156 -11.019531 12.339844 -9.425781 12.339844 -7.285156 Z M 12.339844 -7.285156 "/></g></g></g><g fill="#75b523" fill-opacity="1"><g transform="translate(108.787361, 50.577329)"><g><path d="M 6.011719 0.757812 L 0.0507812 0.757812 L 0.0507812 -1.652344 L 2.335938 -2.171875 L 2.503906 -1.433594 L 1.746094 -1.433594 L 1.746094 -12.953125 L 2.503906 -12.953125 L 2.328125 -12.21875 L 0.0507812 -12.757812 L 0.0507812 -15.164062 L 6.769531 -15.164062 L 6.769531 -12.757812 L 4.492188 -12.21875 L 4.316406 -12.953125 L 5.074219 -12.953125 L 5.074219 -1.433594 L 4.316406 -1.433594 L 4.484375 -2.171875 L 6.769531 -1.652344 L 6.769531 0.757812 Z M 6.011719 -0.757812 L 6.011719 0 L 5.257812 0 L 5.257812 -1.050781 L 6.011719 -1.050781 L 5.847656 -0.3125 L 3.5625 -0.828125 L 3.5625 -13.550781 L 5.835938 -14.09375 L 6.011719 -13.359375 L 5.257812 -13.359375 L 5.257812 -14.40625 L 6.011719 -14.40625 L 6.011719 -13.648438 L 0.808594 -13.648438 L 0.808594 -14.40625 L 1.5625 -14.40625 L 1.5625 -13.359375 L 0.808594 -13.359375 L 0.980469 -14.09375 L 3.257812 -13.550781 L 3.257812 -0.828125 L 0.972656 -0.3125 L 0.808594 -1.050781 L 1.5625 -1.050781 L 1.5625 0 L 0.808594 0 L 0.808594 -0.757812 Z M 6.011719 -0.757812 "/></g></g></g><g fill="#75b523" fill-opacity="1"><g transform="translate(118.733045, 50.577329)"><g><path d="M 10.292969 0.273438 L 8.554688 -4.183594 L 9.261719 -4.460938 L 9.261719 -3.703125 L 3.550781 -3.703125 L 3.550781 -4.460938 L 4.257812 -4.1875 L 2.355469 0.757812 L -1.105469 0.757812 L 5.113281 -15.222656 L 7.78125 -15.222656 L 13.976562 0.757812 L 10.480469 0.757812 Z M 11.703125 -0.273438 L 10.996094 0 L 10.996094 -0.757812 L 12.875 -0.757812 L 12.875 0 L 12.167969 0.273438 L 6.558594 -14.195312 L 7.265625 -14.46875 L 7.265625 -13.710938 L 5.628906 -13.710938 L 5.628906 -14.46875 L 6.335938 -14.191406 L 0.707031 0.273438 L 0 0 L 0 -0.757812 L 1.835938 -0.757812 L 1.835938 0 L 1.128906 -0.273438 L 3.03125 -5.214844 L 9.777344 -5.214844 Z M 8.007812 -5.808594 L 6.394531 -10.167969 C 6.351562 -10.285156 6.28125 -10.484375 6.183594 -10.777344 C 6.085938 -11.070312 5.992188 -11.371094 5.902344 -11.683594 C 5.816406 -11.976562 5.75 -12.199219 5.699219 -12.351562 L 6.417969 -12.589844 L 7.148438 -12.402344 C 7.039062 -11.976562 6.925781 -11.5625 6.8125 -11.160156 C 6.691406 -10.75 6.589844 -10.421875 6.503906 -10.179688 L 4.863281 -5.808594 L 4.15625 -6.074219 L 4.15625 -6.832031 L 8.714844 -6.832031 L 8.714844 -6.074219 Z M 9.804688 -5.316406 L 3.0625 -5.316406 L 5.078125 -10.683594 C 5.152344 -10.898438 5.246094 -11.195312 5.355469 -11.578125 C 5.46875 -11.96875 5.578125 -12.371094 5.683594 -12.78125 L 6.324219 -15.261719 L 7.132812 -12.828125 C 7.191406 -12.660156 7.265625 -12.417969 7.355469 -12.105469 C 7.441406 -11.8125 7.527344 -11.527344 7.617188 -11.257812 C 7.710938 -10.984375 7.773438 -10.796875 7.8125 -10.695312 L 9.425781 -6.335938 Z M 9.804688 -5.316406 "/></g></g></g><g fill="#6b9b5b" fill-opacity="1"><g transform="translate(64.712976, 22.596339)"><g/></g></g><g fill="#6b9b5b" fill-opacity="1"><g transform="translate(2.008355, 50.577329)"><g><path d="M 8.125 -13.015625 C 6.582031 -13.015625 5.363281 -12.492188 4.46875 -11.453125 C 3.582031 -10.421875 3.140625 -9.003906 3.140625 -7.203125 C 3.140625 -5.410156 3.550781 -3.992188 4.375 -2.953125 C 5.207031 -1.910156 6.453125 -1.390625 8.109375 -1.390625 C 8.722656 -1.390625 9.3125 -1.441406 9.875 -1.546875 C 10.445312 -1.660156 11.007812 -1.796875 11.5625 -1.953125 L 11.5625 -0.390625 C 11.019531 -0.179688 10.460938 -0.03125 9.890625 0.0625 C 9.316406 0.15625 8.632812 0.203125 7.84375 0.203125 C 6.375 0.203125 5.148438 -0.0976562 4.171875 -0.703125 C 3.191406 -1.304688 2.457031 -2.164062 1.96875 -3.28125 C 1.476562 -4.40625 1.234375 -5.71875 1.234375 -7.21875 C 1.234375 -8.675781 1.5 -9.957031 2.03125 -11.0625 C 2.5625 -12.175781 3.34375 -13.046875 4.375 -13.671875 C 5.414062 -14.296875 6.675781 -14.609375 8.15625 -14.609375 C 9.664062 -14.609375 10.988281 -14.320312 12.125 -13.75 L 11.390625 -12.21875 C 10.953125 -12.425781 10.457031 -12.609375 9.90625 -12.765625 C 9.363281 -12.929688 8.769531 -13.015625 8.125 -13.015625 Z M 8.125 -13.015625 "/></g></g></g><g fill="#6b9b5b" fill-opacity="1"><g transform="translate(17.863746, 50.577329)"><g><path d="M 11 0 L 9.265625 -4.453125 L 3.546875 -4.453125 L 1.828125 0 L 0 0 L 5.625 -14.46875 L 7.265625 -14.46875 L 12.875 0 Z M 8.71875 -6.078125 L 7.09375 -10.421875 C 7.0625 -10.535156 6.992188 -10.734375 6.890625 -11.015625 C 6.796875 -11.296875 6.707031 -11.585938 6.625 -11.890625 C 6.539062 -12.191406 6.472656 -12.425781 6.421875 -12.59375 C 6.304688 -12.175781 6.191406 -11.765625 6.078125 -11.359375 C 5.960938 -10.960938 5.867188 -10.648438 5.796875 -10.421875 L 4.15625 -6.078125 Z M 8.71875 -6.078125 "/></g></g></g><g fill="#6b9b5b" fill-opacity="1"><g transform="translate(33.860327, 50.577329)"><g><path d="M 13.375 0 L 11.25 0 L 3.546875 -11.96875 L 3.46875 -11.96875 C 3.5 -11.488281 3.53125 -10.898438 3.5625 -10.203125 C 3.601562 -9.503906 3.625 -8.785156 3.625 -8.046875 L 3.625 0 L 1.953125 0 L 1.953125 -14.40625 L 4.046875 -14.40625 L 11.734375 -2.484375 L 11.828125 -2.484375 C 11.804688 -2.691406 11.785156 -3.007812 11.765625 -3.4375 C 11.742188 -3.875 11.722656 -4.34375 11.703125 -4.84375 C 11.679688 -5.351562 11.671875 -5.832031 11.671875 -6.28125 L 11.671875 -14.40625 L 13.375 -14.40625 Z M 13.375 0 "/></g></g></g><g fill="#6b9b5b" fill-opacity="1"><g transform="translate(52.297436, 50.577329)"><g/></g></g><g fill="#6b9b5b" fill-opacity="1"><g transform="translate(59.607597, 50.577329)"><g><path d="M 8.3125 0 L 3.578125 -12.625 L 3.484375 -12.625 C 3.523438 -12.207031 3.554688 -11.644531 3.578125 -10.9375 C 3.609375 -10.238281 3.625 -9.503906 3.625 -8.734375 L 3.625 0 L 1.953125 0 L 1.953125 -14.40625 L 4.640625 -14.40625 L 9.078125 -2.609375 L 9.15625 -2.609375 L 13.671875 -14.40625 L 16.34375 -14.40625 L 16.34375 0 L 14.546875 0 L 14.546875 -8.859375 C 14.546875 -9.554688 14.5625 -10.25 14.59375 -10.9375 C 14.625 -11.625 14.65625 -12.179688 14.6875 -12.609375 L 14.609375 -12.609375 L 9.796875 0 Z M 8.3125 0 "/></g></g></g><g fill="#6b9b5b" fill-opacity="1"><g transform="translate(81.00965, 50.577329)"><g><path d="M 6.015625 0 L 0.8125 0 L 0.8125 -1.046875 L 2.5 -1.4375 L 2.5 -12.953125 L 0.8125 -13.359375 L 0.8125 -14.40625 L 6.015625 -14.40625 L 6.015625 -13.359375 L 4.3125 -12.953125 L 4.3125 -1.4375 L 6.015625 -1.046875 Z M 6.015625 0 "/></g></g></g><g fill="#6b9b5b" fill-opacity="1"><g transform="translate(90.955334, 50.577329)"><g><path d="M 13.5 -7.34375 C 13.5 -4.90625 12.832031 -3.070312 11.5 -1.84375 C 10.175781 -0.613281 8.332031 0 5.96875 0 L 1.953125 0 L 1.953125 -14.40625 L 6.390625 -14.40625 C 7.828125 -14.40625 9.082031 -14.132812 10.15625 -13.59375 C 11.226562 -13.050781 12.050781 -12.253906 12.625 -11.203125 C 13.207031 -10.160156 13.5 -8.875 13.5 -7.34375 Z M 11.578125 -7.28125 C 11.578125 -9.207031 11.101562 -10.613281 10.15625 -11.5 C 9.207031 -12.394531 7.863281 -12.84375 6.125 -12.84375 L 3.765625 -12.84375 L 3.765625 -1.546875 L 5.734375 -1.546875 C 9.628906 -1.546875 11.578125 -3.457031 11.578125 -7.28125 Z M 11.578125 -7.28125 "/></g></g></g><g fill="#6b9b5b" fill-opacity="1"><g transform="translate(108.787361, 50.577329)"><g><path d="M 6.015625 0 L 0.8125 0 L 0.8125 -1.046875 L 2.5 -1.4375 L 2.5 -12.953125 L 0.8125 -13.359375 L 0.8125 -14.40625 L 6.015625 -14.40625 L 6.015625 -13.359375 L 4.3125 -12.953125 L 4.3125 -1.4375 L 6.015625 -1.046875 Z M 6.015625 0 "/></g></g></g><g fill="#6b9b5b" fill-opacity="1"><g transform="translate(118.733045, 50.577329)"><g><path d="M 11 0 L 9.265625 -4.453125 L 3.546875 -4.453125 L 1.828125 0 L 0 0 L 5.625 -14.46875 L 7.265625 -14.46875 L 12.875 0 Z M 8.71875 -6.078125 L 7.09375 -10.421875 C 7.0625 -10.535156 6.992188 -10.734375 6.890625 -11.015625 C 6.796875 -11.296875 6.707031 -11.585938 6.625 -11.890625 C 6.539062 -12.191406 6.472656 -12.425781 6.421875 -12.59375 C 6.304688 -12.175781 6.191406 -11.765625 6.078125 -11.359375 C 5.960938 -10.960938 5.867188 -10.648438 5.796875 -10.421875 L 4.15625 -6.078125 Z M 8.71875 -6.078125 "/></g></g></g></g></g><g clip-path="url(#493e732136)"><g transform="matrix(1, 0, 0, 1, 0, 24)"><g clip-path="url(#0b300b7f39)"><g clip-path="url(#c90f7d34bc)"><g fill="#75b523" fill-opacity="1"><g transform="translate(2.355877, 35.780345)"><g><path d="M 25.882812 -33.640625 C 26.019531 -33.640625 26.191406 -33.632812 26.402344 -33.613281 C 26.8125 -33.574219 27.195312 -33.449219 27.554688 -33.234375 C 27.988281 -32.972656 28.324219 -32.582031 28.570312 -32.0625 C 28.757812 -31.660156 28.871094 -31.15625 28.914062 -30.546875 C 28.9375 -30.296875 29 -29.953125 29.113281 -29.515625 C 29.273438 -28.859375 29.355469 -28.113281 29.355469 -27.28125 C 29.355469 -26.449219 29.09375 -25.792969 28.5625 -25.308594 C 28.074219 -24.859375 27.5 -24.636719 26.84375 -24.636719 C 25.984375 -24.636719 25.226562 -24.992188 24.566406 -25.710938 C 24.304688 -25.996094 23.917969 -26.328125 23.40625 -26.699219 C 22.933594 -27.046875 22.269531 -27.375 21.410156 -27.683594 C 20.585938 -27.984375 19.421875 -28.132812 17.925781 -28.132812 C 17.648438 -28.132812 17.445312 -28.117188 17.3125 -28.082031 C 17.304688 -28.078125 17.300781 -28.078125 17.300781 -28.078125 C 17.3125 -28.082031 17.328125 -28.089844 17.347656 -28.101562 C 17.433594 -28.148438 17.515625 -28.21875 17.585938 -28.3125 C 17.636719 -28.375 17.671875 -28.429688 17.6875 -28.476562 C 17.679688 -28.449219 17.667969 -28.40625 17.65625 -28.34375 C 17.617188 -28.117188 17.597656 -27.808594 17.597656 -27.410156 L 17.597656 -4.285156 C 17.597656 -3.960938 17.605469 -3.707031 17.625 -3.519531 C 17.632812 -3.457031 17.640625 -3.410156 17.644531 -3.382812 C 17.640625 -3.414062 17.621094 -3.457031 17.597656 -3.511719 C 17.539062 -3.636719 17.460938 -3.738281 17.363281 -3.816406 C 17.339844 -3.835938 17.316406 -3.847656 17.296875 -3.859375 L 17.304688 -3.859375 L 18.53125 -3.390625 C 19.039062 -3.195312 19.441406 -2.902344 19.738281 -2.503906 C 20.058594 -2.070312 20.21875 -1.570312 20.21875 -1.003906 C 20.21875 -0.207031 19.949219 0.441406 19.410156 0.941406 C 18.90625 1.40625 18.164062 1.640625 17.179688 1.640625 L 10.796875 1.640625 C 9.972656 1.640625 9.300781 1.457031 8.777344 1.09375 C 8.421875 0.84375 8.152344 0.527344 7.96875 0.140625 C 7.800781 -0.207031 7.714844 -0.589844 7.714844 -1.003906 C 7.714844 -1.445312 7.816406 -1.847656 8.015625 -2.210938 C 8.21875 -2.589844 8.511719 -2.894531 8.894531 -3.125 C 9.300781 -3.375 9.757812 -3.5625 10.269531 -3.6875 C 10.351562 -3.710938 10.414062 -3.730469 10.453125 -3.753906 C 10.378906 -3.710938 10.320312 -3.652344 10.277344 -3.582031 L 10.277344 -3.585938 C 10.292969 -3.636719 10.308594 -3.703125 10.324219 -3.78125 C 10.363281 -3.988281 10.382812 -4.285156 10.382812 -4.679688 L 10.382812 -27.410156 C 10.382812 -27.808594 10.363281 -28.117188 10.320312 -28.34375 C 10.3125 -28.40625 10.300781 -28.449219 10.289062 -28.476562 C 10.308594 -28.429688 10.34375 -28.375 10.394531 -28.3125 C 10.464844 -28.21875 10.546875 -28.148438 10.632812 -28.101562 C 10.652344 -28.089844 10.667969 -28.082031 10.679688 -28.078125 C 10.679688 -28.078125 10.675781 -28.078125 10.664062 -28.082031 C 10.535156 -28.117188 10.332031 -28.132812 10.054688 -28.132812 C 8.53125 -28.132812 7.363281 -27.984375 6.554688 -27.6875 C 5.707031 -27.375 5.046875 -27.046875 4.574219 -26.699219 C 4.0625 -26.328125 3.675781 -25.996094 3.414062 -25.710938 C 2.753906 -24.992188 1.996094 -24.636719 1.136719 -24.636719 C 0.507812 -24.636719 -0.046875 -24.835938 -0.523438 -25.234375 C -1.09375 -25.707031 -1.378906 -26.390625 -1.378906 -27.28125 C -1.378906 -27.847656 -1.308594 -28.492188 -1.175781 -29.21875 C -1.0625 -29.828125 -0.976562 -30.316406 -0.921875 -30.675781 L 0.699219 -30.429688 L -0.929688 -30.601562 C -0.839844 -31.460938 -0.605469 -32.132812 -0.230469 -32.625 C 0.285156 -33.304688 1.0625 -33.640625 2.097656 -33.640625 Z M 25.882812 -30.363281 L 2.097656 -30.363281 C 2.054688 -30.363281 2.019531 -30.359375 1.996094 -30.355469 C 2.003906 -30.359375 2.015625 -30.363281 2.027344 -30.367188 C 2.15625 -30.414062 2.273438 -30.503906 2.375 -30.632812 C 2.394531 -30.660156 2.410156 -30.683594 2.417969 -30.703125 C 2.414062 -30.695312 2.410156 -30.679688 2.402344 -30.660156 C 2.371094 -30.5625 2.347656 -30.425781 2.328125 -30.257812 L 2.320312 -30.179688 C 2.257812 -29.78125 2.167969 -29.261719 2.050781 -28.621094 C 1.949219 -28.09375 1.902344 -27.644531 1.902344 -27.28125 C 1.902344 -27.261719 1.902344 -27.246094 1.902344 -27.238281 C 1.898438 -27.261719 1.894531 -27.285156 1.882812 -27.316406 C 1.828125 -27.480469 1.726562 -27.625 1.574219 -27.753906 C 1.445312 -27.859375 1.300781 -27.914062 1.136719 -27.914062 C 1.0625 -27.914062 1 -27.898438 0.945312 -27.871094 L 0.9375 -27.871094 C 0.953125 -27.882812 0.976562 -27.90625 1 -27.929688 C 1.410156 -28.375 1.953125 -28.847656 2.636719 -29.347656 C 3.359375 -29.875 4.289062 -30.347656 5.421875 -30.765625 C 6.597656 -31.195312 8.140625 -31.410156 10.054688 -31.410156 C 11.425781 -31.410156 12.390625 -31.0625 12.953125 -30.359375 C 13.242188 -30 13.441406 -29.519531 13.546875 -28.929688 C 13.625 -28.511719 13.664062 -28.003906 13.664062 -27.410156 L 13.664062 -4.679688 C 13.664062 -4.078125 13.625 -3.578125 13.546875 -3.167969 C 13.453125 -2.679688 13.308594 -2.265625 13.109375 -1.929688 C 12.863281 -1.503906 12.527344 -1.167969 12.105469 -0.921875 C 11.796875 -0.742188 11.449219 -0.605469 11.066406 -0.507812 C 10.878906 -0.460938 10.722656 -0.402344 10.605469 -0.328125 C 10.722656 -0.398438 10.820312 -0.503906 10.894531 -0.640625 C 10.960938 -0.765625 10.996094 -0.886719 10.996094 -1.003906 C 10.996094 -1.085938 10.972656 -1.175781 10.925781 -1.273438 C 10.859375 -1.40625 10.769531 -1.515625 10.652344 -1.597656 C 10.601562 -1.632812 10.5625 -1.652344 10.539062 -1.660156 C 10.597656 -1.644531 10.683594 -1.640625 10.796875 -1.640625 L 17.179688 -1.640625 C 17.332031 -1.640625 17.4375 -1.648438 17.5 -1.660156 C 17.40625 -1.640625 17.300781 -1.574219 17.183594 -1.46875 C 17.089844 -1.378906 17.023438 -1.28125 16.976562 -1.164062 C 16.953125 -1.101562 16.941406 -1.046875 16.941406 -1.003906 C 16.941406 -0.847656 16.996094 -0.695312 17.105469 -0.546875 C 17.191406 -0.433594 17.277344 -0.359375 17.363281 -0.328125 L 16.183594 -0.777344 C 15.4375 -1.046875 14.917969 -1.496094 14.625 -2.125 C 14.421875 -2.566406 14.316406 -3.285156 14.316406 -4.285156 L 14.316406 -27.410156 C 14.316406 -28.003906 14.355469 -28.511719 14.433594 -28.929688 C 14.539062 -29.519531 14.738281 -30 15.027344 -30.359375 C 15.589844 -31.0625 16.554688 -31.410156 17.925781 -31.410156 C 19.808594 -31.410156 21.339844 -31.195312 22.527344 -30.765625 C 23.679688 -30.351562 24.617188 -29.875 25.339844 -29.347656 C 26.023438 -28.847656 26.570312 -28.375 26.980469 -27.929688 C 27.003906 -27.90625 27.023438 -27.882812 27.042969 -27.871094 L 27.035156 -27.871094 C 26.980469 -27.898438 26.917969 -27.914062 26.84375 -27.914062 C 26.652344 -27.914062 26.484375 -27.851562 26.347656 -27.722656 C 26.230469 -27.617188 26.148438 -27.496094 26.101562 -27.359375 C 26.089844 -27.324219 26.082031 -27.296875 26.078125 -27.269531 L 26.078125 -27.28125 C 26.078125 -27.84375 26.027344 -28.324219 25.929688 -28.71875 C 25.777344 -29.328125 25.683594 -29.859375 25.644531 -30.3125 C 25.636719 -30.441406 25.621094 -30.550781 25.605469 -30.632812 C 25.597656 -30.660156 25.59375 -30.679688 25.589844 -30.695312 C 25.589844 -30.691406 25.59375 -30.683594 25.597656 -30.675781 C 25.636719 -30.589844 25.726562 -30.507812 25.867188 -30.421875 C 25.9375 -30.378906 26.015625 -30.355469 26.105469 -30.347656 C 25.992188 -30.359375 25.917969 -30.363281 25.882812 -30.363281 Z M 25.882812 -30.363281 "/></g></g></g></g><g fill="#75b523" fill-opacity="1"><g transform="translate(38.68102, 35.780345)"><g><path d="M 7.671875 -17.667969 L 10.339844 -18.058594 C 11.28125 -18.199219 12.238281 -18.386719 13.210938 -18.621094 C 14.167969 -18.855469 15.113281 -19.140625 16.046875 -19.484375 C 16.894531 -19.796875 17.636719 -20.183594 18.269531 -20.648438 C 18.84375 -21.070312 19.308594 -21.578125 19.660156 -22.171875 C 19.976562 -22.699219 20.132812 -23.355469 20.132812 -24.132812 C 20.132812 -24.996094 19.957031 -25.640625 19.609375 -26.066406 C 19.179688 -26.589844 18.628906 -26.992188 17.957031 -27.28125 C 17.1875 -27.609375 16.347656 -27.824219 15.429688 -27.925781 C 14.410156 -28.035156 13.449219 -28.089844 12.546875 -28.089844 C 11.695312 -28.089844 11 -28.0625 10.453125 -28.007812 C 10.113281 -27.976562 9.875 -27.917969 9.742188 -27.835938 C 9.710938 -27.816406 9.683594 -27.78125 9.667969 -27.738281 C 9.589844 -27.527344 9.550781 -27.203125 9.550781 -26.757812 L 9.550781 -16.042969 L 7.914062 -16.042969 Z M 6.273438 -14.144531 L 6.273438 -26.757812 C 6.273438 -27.59375 6.378906 -28.300781 6.59375 -28.878906 C 6.871094 -29.621094 7.339844 -30.199219 8.007812 -30.617188 C 8.574219 -30.972656 9.285156 -31.191406 10.136719 -31.273438 C 10.785156 -31.335938 11.589844 -31.367188 12.546875 -31.367188 C 13.566406 -31.367188 14.648438 -31.308594 15.785156 -31.183594 C 17.023438 -31.050781 18.179688 -30.753906 19.25 -30.296875 C 20.410156 -29.796875 21.375 -29.082031 22.144531 -28.144531 C 22.988281 -27.113281 23.410156 -25.777344 23.410156 -24.132812 C 23.410156 -22.753906 23.101562 -21.542969 22.484375 -20.5 C 21.902344 -19.519531 21.140625 -18.6875 20.203125 -18 C 19.320312 -17.355469 18.3125 -16.824219 17.179688 -16.40625 C 16.128906 -16.023438 15.0625 -15.699219 13.984375 -15.433594 C 12.914062 -15.175781 11.859375 -14.96875 10.820312 -14.816406 L 8.152344 -14.421875 Z M 16.65625 -33.640625 C 17.78125 -33.640625 18.957031 -33.523438 20.183594 -33.285156 C 21.496094 -33.027344 22.707031 -32.566406 23.816406 -31.898438 C 24.988281 -31.195312 25.949219 -30.246094 26.703125 -29.046875 C 27.480469 -27.804688 27.871094 -26.28125 27.871094 -24.484375 C 27.871094 -22.113281 27.039062 -20.078125 25.371094 -18.375 C 23.863281 -16.835938 21.960938 -15.570312 19.664062 -14.582031 L 19.019531 -16.089844 L 20.273438 -17.140625 C 21.21875 -16.015625 22.070312 -14.871094 22.835938 -13.710938 C 23.589844 -12.566406 24.253906 -11.460938 24.832031 -10.398438 C 25.394531 -9.359375 25.894531 -8.386719 26.332031 -7.488281 C 26.757812 -6.605469 27.121094 -5.835938 27.417969 -5.179688 C 27.660156 -4.644531 27.894531 -4.226562 28.117188 -3.925781 C 28.246094 -3.753906 28.492188 -3.578125 28.859375 -3.402344 C 29.207031 -3.230469 29.429688 -3.128906 29.535156 -3.097656 C 30.109375 -2.917969 30.519531 -2.546875 30.769531 -1.972656 C 30.90625 -1.65625 30.976562 -1.289062 30.976562 -0.875 C 30.976562 -0.246094 30.773438 0.308594 30.375 0.789062 C 29.902344 1.355469 29.132812 1.640625 28.066406 1.640625 L 21.160156 1.640625 C 20.652344 1.640625 20.21875 1.59375 19.863281 1.496094 C 19.226562 1.328125 18.757812 1 18.457031 0.519531 C 18.144531 0.0195312 17.992188 -0.457031 17.992188 -0.917969 C 17.992188 -1.335938 18.070312 -1.71875 18.234375 -2.0625 C 18.429688 -2.480469 18.722656 -2.808594 19.109375 -3.050781 C 19.398438 -3.230469 19.707031 -3.398438 20.042969 -3.558594 C 20.21875 -3.640625 20.382812 -3.738281 20.527344 -3.847656 C 20.398438 -3.75 20.304688 -3.632812 20.25 -3.496094 C 20.234375 -3.457031 20.226562 -3.425781 20.21875 -3.394531 C 20.21875 -3.390625 20.21875 -3.390625 20.21875 -3.386719 C 20.21875 -3.394531 20.21875 -3.402344 20.21875 -3.410156 C 20.21875 -3.765625 20.007812 -4.378906 19.582031 -5.242188 C 19.066406 -6.285156 18.453125 -7.371094 17.738281 -8.503906 C 17.015625 -9.652344 16.28125 -10.734375 15.535156 -11.75 C 14.808594 -12.734375 14.246094 -13.429688 13.835938 -13.835938 L 14.996094 -14.996094 L 15.382812 -13.402344 C 14.15625 -13.101562 12.949219 -12.847656 11.761719 -12.636719 C 10.582031 -12.429688 9.363281 -12.25 8.105469 -12.101562 L 7.914062 -13.726562 L 9.550781 -13.726562 L 9.550781 -3.015625 C 9.550781 -3.226562 9.488281 -3.425781 9.359375 -3.609375 C 9.25 -3.769531 9.121094 -3.878906 8.972656 -3.945312 C 9.1875 -3.851562 9.421875 -3.761719 9.675781 -3.675781 C 10.101562 -3.535156 10.496094 -3.351562 10.867188 -3.125 C 11.257812 -2.886719 11.558594 -2.566406 11.765625 -2.164062 C 11.953125 -1.800781 12.042969 -1.402344 12.042969 -0.960938 C 12.042969 -0.109375 11.734375 0.558594 11.113281 1.046875 C 10.609375 1.441406 9.921875 1.640625 9.050781 1.640625 L 2.753906 1.640625 C 1.667969 1.640625 0.875 1.347656 0.371094 0.761719 C -0.0664062 0.25 -0.285156 -0.324219 -0.285156 -0.960938 C -0.285156 -1.484375 -0.164062 -1.945312 0.0820312 -2.351562 C 0.351562 -2.804688 0.742188 -3.136719 1.25 -3.347656 C 1.613281 -3.5 1.992188 -3.652344 2.382812 -3.804688 L 2.402344 -3.8125 L 2.421875 -3.816406 C 2.445312 -3.824219 2.464844 -3.832031 2.476562 -3.839844 C 2.46875 -3.835938 2.460938 -3.832031 2.449219 -3.820312 C 2.382812 -3.765625 2.328125 -3.691406 2.285156 -3.601562 C 2.277344 -3.582031 2.269531 -3.5625 2.265625 -3.546875 C 2.265625 -3.550781 2.265625 -3.554688 2.269531 -3.566406 C 2.28125 -3.613281 2.292969 -3.679688 2.300781 -3.761719 C 2.324219 -3.984375 2.339844 -4.273438 2.339844 -4.632812 L 2.339844 -27.238281 C 2.339844 -27.679688 2.328125 -28.027344 2.300781 -28.285156 C 2.285156 -28.464844 2.265625 -28.585938 2.25 -28.640625 C 2.316406 -28.433594 2.453125 -28.269531 2.652344 -28.148438 C 2.632812 -28.160156 2.589844 -28.175781 2.523438 -28.195312 C 2.097656 -28.316406 1.695312 -28.4375 1.316406 -28.5625 C 0.75 -28.742188 0.316406 -29.074219 0.015625 -29.558594 C -0.242188 -29.972656 -0.371094 -30.449219 -0.371094 -30.996094 C -0.371094 -31.796875 -0.101562 -32.445312 0.441406 -32.945312 C 0.945312 -33.410156 1.6875 -33.640625 2.667969 -33.640625 Z M 16.65625 -30.363281 L 2.667969 -30.363281 C 2.515625 -30.363281 2.410156 -30.355469 2.347656 -30.339844 C 2.441406 -30.363281 2.546875 -30.425781 2.664062 -30.535156 C 2.757812 -30.621094 2.828125 -30.722656 2.871094 -30.835938 C 2.894531 -30.902344 2.90625 -30.953125 2.90625 -30.996094 C 2.90625 -31.078125 2.871094 -31.175781 2.792969 -31.296875 C 2.671875 -31.492188 2.511719 -31.621094 2.3125 -31.683594 C 2.660156 -31.574219 3.03125 -31.460938 3.421875 -31.347656 C 3.765625 -31.25 4.070312 -31.121094 4.339844 -30.960938 C 4.832031 -30.664062 5.171875 -30.238281 5.359375 -29.679688 C 5.457031 -29.386719 5.527344 -29.023438 5.566406 -28.59375 C 5.601562 -28.238281 5.617188 -27.785156 5.617188 -27.238281 L 5.617188 -4.632812 C 5.617188 -3.554688 5.503906 -2.761719 5.277344 -2.257812 C 4.953125 -1.539062 4.371094 -1.03125 3.523438 -0.730469 L 2.972656 -2.273438 L 3.5625 -0.742188 C 3.195312 -0.601562 2.847656 -0.460938 2.511719 -0.324219 C 2.667969 -0.386719 2.792969 -0.503906 2.890625 -0.664062 C 2.960938 -0.777344 2.996094 -0.878906 2.996094 -0.960938 C 2.996094 -1.132812 2.949219 -1.269531 2.863281 -1.371094 C 2.730469 -1.527344 2.59375 -1.621094 2.460938 -1.660156 C 2.507812 -1.644531 2.605469 -1.640625 2.753906 -1.640625 L 9.050781 -1.640625 C 9.175781 -1.640625 9.261719 -1.644531 9.316406 -1.65625 C 9.253906 -1.644531 9.175781 -1.601562 9.085938 -1.53125 C 8.96875 -1.4375 8.878906 -1.320312 8.820312 -1.179688 C 8.785156 -1.097656 8.765625 -1.023438 8.765625 -0.960938 C 8.765625 -0.871094 8.792969 -0.773438 8.847656 -0.664062 C 8.921875 -0.519531 9.027344 -0.40625 9.15625 -0.328125 C 9 -0.421875 8.828125 -0.503906 8.640625 -0.566406 C 8.285156 -0.683594 7.953125 -0.8125 7.640625 -0.949219 C 7.230469 -1.132812 6.902344 -1.398438 6.664062 -1.746094 C 6.402344 -2.121094 6.273438 -2.542969 6.273438 -3.015625 L 6.273438 -15.183594 L 7.71875 -15.355469 C 8.914062 -15.496094 10.070312 -15.667969 11.191406 -15.867188 C 12.308594 -16.066406 13.445312 -16.304688 14.605469 -16.589844 L 15.503906 -16.808594 L 16.15625 -16.15625 C 16.679688 -15.628906 17.351562 -14.808594 18.175781 -13.695312 C 18.96875 -12.613281 19.75 -11.464844 20.515625 -10.25 C 21.289062 -9.023438 21.957031 -7.835938 22.519531 -6.691406 C 23.171875 -5.371094 23.5 -4.277344 23.5 -3.410156 C 23.5 -2.457031 23.164062 -1.726562 22.492188 -1.222656 C 22.171875 -0.984375 21.824219 -0.773438 21.445312 -0.59375 C 21.226562 -0.492188 21.027344 -0.382812 20.847656 -0.269531 C 21.003906 -0.367188 21.121094 -0.5 21.199219 -0.667969 C 21.246094 -0.765625 21.269531 -0.847656 21.269531 -0.917969 C 21.269531 -1.046875 21.25 -1.160156 21.214844 -1.253906 C 21.210938 -1.265625 21.210938 -1.269531 21.207031 -1.269531 C 21.214844 -1.257812 21.226562 -1.238281 21.238281 -1.21875 C 21.136719 -1.382812 21.007812 -1.511719 20.855469 -1.601562 C 20.796875 -1.636719 20.746094 -1.660156 20.707031 -1.671875 C 20.789062 -1.648438 20.9375 -1.640625 21.160156 -1.640625 L 28.066406 -1.640625 C 28.210938 -1.640625 28.304688 -1.644531 28.347656 -1.65625 C 28.175781 -1.613281 28.011719 -1.5 27.855469 -1.3125 C 27.75 -1.183594 27.695312 -1.035156 27.695312 -0.875 L 27.699219 -0.871094 C 27.707031 -0.808594 27.730469 -0.742188 27.761719 -0.671875 C 27.914062 -0.316406 28.183594 -0.0820312 28.570312 0.0351562 C 28.292969 -0.046875 27.921875 -0.207031 27.449219 -0.445312 C 26.59375 -0.851562 25.9375 -1.363281 25.480469 -1.976562 C 25.121094 -2.460938 24.773438 -3.078125 24.433594 -3.824219 C 24.148438 -4.453125 23.796875 -5.199219 23.378906 -6.0625 C 22.964844 -6.914062 22.488281 -7.839844 21.949219 -8.835938 C 21.417969 -9.816406 20.800781 -10.839844 20.097656 -11.910156 C 19.402344 -12.964844 18.625 -14.003906 17.761719 -15.035156 L 16.347656 -16.722656 L 18.371094 -17.59375 C 20.269531 -18.414062 21.824219 -19.4375 23.027344 -20.667969 C 24.070312 -21.734375 24.589844 -23.003906 24.589844 -24.484375 C 24.589844 -25.65625 24.371094 -26.597656 23.925781 -27.304688 C 23.449219 -28.058594 22.851562 -28.65625 22.128906 -29.089844 C 21.347656 -29.558594 20.488281 -29.882812 19.558594 -30.066406 C 18.539062 -30.261719 17.570312 -30.363281 16.65625 -30.363281 Z M 16.65625 -30.363281 "/></g></g></g><g fill="#75b523" fill-opacity="1"><g transform="translate(76.758107, 35.780345)"><g/></g></g><g fill="#75b523" fill-opacity="1"><g transform="translate(98.22168, 35.780345)"><g/></g></g><g fill="#75b523" fill-opacity="1"><g transform="translate(119.691435, 35.780345)"><g><path d="M 0.546875 -23.433594 C 0.546875 -24.847656 0.824219 -26.210938 1.375 -27.523438 C 1.933594 -28.847656 2.765625 -30.023438 3.871094 -31.042969 C 4.964844 -32.050781 6.304688 -32.847656 7.894531 -33.429688 C 9.460938 -34.007812 11.257812 -34.296875 13.289062 -34.296875 C 13.910156 -34.296875 14.617188 -34.25 15.410156 -34.15625 C 16.203125 -34.058594 16.992188 -33.917969 17.78125 -33.726562 C 18.589844 -33.535156 19.375 -33.28125 20.136719 -32.976562 C 20.921875 -32.65625 21.625 -32.292969 22.246094 -31.878906 L 22.316406 -31.832031 L 22.382812 -31.773438 C 22.566406 -31.625 22.761719 -31.460938 22.96875 -31.28125 C 23.4375 -30.878906 23.746094 -30.390625 23.886719 -29.820312 L 23.90625 -29.746094 L 23.917969 -29.671875 C 23.984375 -29.226562 24.027344 -28.707031 24.042969 -28.113281 C 24.058594 -27.574219 24.066406 -27.046875 24.066406 -26.539062 C 24.066406 -26.164062 24.011719 -25.769531 23.902344 -25.355469 C 23.765625 -24.832031 23.484375 -24.417969 23.058594 -24.121094 C 22.679688 -23.851562 22.234375 -23.71875 21.726562 -23.71875 C 20.859375 -23.71875 20.066406 -24.199219 19.34375 -25.160156 C 19.007812 -25.613281 18.535156 -26.128906 17.929688 -26.707031 C 17.382812 -27.230469 16.644531 -27.71875 15.722656 -28.167969 C 14.867188 -28.582031 13.710938 -28.789062 12.242188 -28.789062 C 11.628906 -28.789062 11.027344 -28.691406 10.433594 -28.5 C 9.859375 -28.308594 9.347656 -28.042969 8.898438 -27.691406 C 8.488281 -27.371094 8.164062 -26.980469 7.925781 -26.523438 C 7.699219 -26.089844 7.585938 -25.597656 7.585938 -25.050781 C 7.585938 -24.195312 7.75 -23.550781 8.082031 -23.113281 C 8.480469 -22.589844 9.007812 -22.167969 9.664062 -21.84375 C 10.4375 -21.464844 11.339844 -21.15625 12.363281 -20.921875 L 15.90625 -20.113281 C 17.167969 -19.824219 18.394531 -19.484375 19.597656 -19.089844 C 20.929688 -18.648438 22.117188 -18.019531 23.15625 -17.203125 C 24.238281 -16.351562 25.109375 -15.261719 25.773438 -13.9375 C 26.441406 -12.597656 26.777344 -10.941406 26.777344 -8.960938 C 26.777344 -7.777344 26.492188 -6.519531 25.925781 -5.191406 C 25.355469 -3.863281 24.488281 -2.640625 23.320312 -1.527344 C 22.164062 -0.421875 20.714844 0.492188 18.964844 1.210938 C 17.203125 1.933594 15.152344 2.296875 12.808594 2.296875 C 10.253906 2.296875 8.105469 1.921875 6.371094 1.179688 C 4.65625 0.445312 3.28125 -0.421875 2.25 -1.421875 C 1.199219 -2.4375 0.449219 -3.476562 0 -4.542969 C -0.453125 -5.605469 -0.675781 -6.46875 -0.675781 -7.125 C -0.675781 -7.800781 -0.496094 -8.417969 -0.128906 -8.980469 C 0.132812 -9.382812 0.472656 -9.683594 0.894531 -9.890625 C 1.269531 -10.074219 1.6875 -10.164062 2.140625 -10.164062 C 2.914062 -10.164062 3.570312 -9.894531 4.109375 -9.355469 C 4.40625 -9.0625 4.699219 -8.695312 4.992188 -8.253906 L 5.019531 -8.214844 L 5.042969 -8.175781 C 5.304688 -7.726562 5.660156 -7.199219 6.109375 -6.585938 C 6.503906 -6.046875 7.019531 -5.523438 7.652344 -5.015625 C 8.257812 -4.527344 9.023438 -4.113281 9.949219 -3.765625 C 10.859375 -3.425781 11.988281 -3.257812 13.335938 -3.257812 C 14.207031 -3.257812 15.074219 -3.375 15.9375 -3.613281 C 16.757812 -3.839844 17.488281 -4.179688 18.136719 -4.636719 C 18.742188 -5.066406 19.230469 -5.609375 19.609375 -6.261719 C 19.957031 -6.867188 20.132812 -7.59375 20.132812 -8.4375 C 20.132812 -9.222656 19.96875 -9.820312 19.636719 -10.238281 C 19.214844 -10.765625 18.652344 -11.207031 17.949219 -11.566406 C 17.140625 -11.976562 16.210938 -12.3125 15.167969 -12.574219 C 14.011719 -12.863281 12.828125 -13.144531 11.617188 -13.417969 C 10.351562 -13.703125 9.109375 -14.035156 7.886719 -14.414062 C 6.550781 -14.824219 5.355469 -15.390625 4.300781 -16.113281 C 3.179688 -16.875 2.277344 -17.839844 1.601562 -19 C 0.898438 -20.203125 0.546875 -21.679688 0.546875 -23.433594 Z M 3.824219 -23.433594 C 3.824219 -22.273438 4.027344 -21.34375 4.433594 -20.652344 C 4.863281 -19.917969 5.433594 -19.308594 6.148438 -18.820312 C 6.929688 -18.285156 7.832031 -17.863281 8.855469 -17.546875 C 9.996094 -17.195312 11.15625 -16.882812 12.339844 -16.617188 C 13.578125 -16.335938 14.785156 -16.050781 15.960938 -15.753906 C 17.246094 -15.433594 18.402344 -15.011719 19.433594 -14.488281 C 20.5625 -13.914062 21.484375 -13.179688 22.203125 -12.277344 C 23.007812 -11.265625 23.410156 -9.984375 23.410156 -8.4375 C 23.410156 -7.007812 23.089844 -5.738281 22.449219 -4.625 C 21.835938 -3.558594 21.027344 -2.671875 20.03125 -1.964844 C 19.074219 -1.285156 18 -0.78125 16.808594 -0.453125 C 15.660156 -0.136719 14.503906 0.0234375 13.335938 0.0234375 C 11.59375 0.0234375 10.082031 -0.214844 8.804688 -0.695312 C 7.546875 -1.164062 6.476562 -1.753906 5.597656 -2.460938 C 4.742188 -3.148438 4.03125 -3.875 3.464844 -4.648438 C 2.953125 -5.347656 2.535156 -5.96875 2.214844 -6.511719 L 3.628906 -7.34375 L 2.265625 -6.433594 C 2.089844 -6.695312 1.933594 -6.894531 1.792969 -7.039062 C 1.894531 -6.9375 2.011719 -6.886719 2.140625 -6.886719 C 2.191406 -6.886719 2.253906 -6.90625 2.332031 -6.941406 C 2.453125 -7.003906 2.550781 -7.085938 2.621094 -7.195312 C 2.609375 -7.175781 2.601562 -7.152344 2.601562 -7.125 C 2.601562 -6.910156 2.738281 -6.476562 3.019531 -5.820312 C 3.296875 -5.164062 3.800781 -4.484375 4.527344 -3.78125 C 5.273438 -3.058594 6.316406 -2.410156 7.664062 -1.835938 C 8.988281 -1.265625 10.703125 -0.984375 12.808594 -0.984375 C 14.722656 -0.984375 16.355469 -1.261719 17.714844 -1.824219 C 19.085938 -2.386719 20.199219 -3.074219 21.054688 -3.894531 C 21.898438 -4.703125 22.515625 -5.566406 22.910156 -6.480469 C 23.300781 -7.398438 23.5 -8.226562 23.5 -8.960938 C 23.5 -10.425781 23.28125 -11.59375 22.839844 -12.46875 C 22.398438 -13.359375 21.828125 -14.078125 21.128906 -14.625 C 20.390625 -15.207031 19.539062 -15.65625 18.570312 -15.972656 C 17.46875 -16.335938 16.335938 -16.652344 15.175781 -16.917969 L 11.636719 -17.726562 C 10.359375 -18.015625 9.21875 -18.40625 8.21875 -18.902344 C 7.097656 -19.453125 6.179688 -20.195312 5.472656 -21.128906 C 4.695312 -22.152344 4.304688 -23.457031 4.304688 -25.050781 C 4.304688 -26.136719 4.542969 -27.132812 5.015625 -28.039062 C 5.476562 -28.917969 6.097656 -29.664062 6.882812 -30.277344 C 7.632812 -30.863281 8.476562 -31.308594 9.414062 -31.613281 C 10.339844 -31.917969 11.28125 -32.066406 12.242188 -32.066406 C 14.210938 -32.066406 15.851562 -31.75 17.15625 -31.117188 C 18.386719 -30.515625 19.402344 -29.835938 20.195312 -29.078125 C 20.929688 -28.375 21.519531 -27.722656 21.96875 -27.128906 C 22.070312 -26.996094 22.140625 -26.910156 22.191406 -26.875 C 22.082031 -26.957031 21.925781 -26.996094 21.726562 -26.996094 C 21.542969 -26.996094 21.355469 -26.929688 21.171875 -26.800781 C 20.945312 -26.640625 20.796875 -26.4375 20.734375 -26.1875 C 20.769531 -26.328125 20.789062 -26.445312 20.789062 -26.539062 C 20.789062 -27.019531 20.78125 -27.511719 20.765625 -28.023438 C 20.753906 -28.476562 20.722656 -28.863281 20.675781 -29.171875 L 22.296875 -29.421875 L 20.707031 -29.023438 C 20.730469 -28.921875 20.777344 -28.84375 20.835938 -28.789062 C 20.636719 -28.960938 20.453125 -29.117188 20.285156 -29.257812 L 21.335938 -30.515625 L 20.425781 -29.152344 C 19.992188 -29.4375 19.488281 -29.699219 18.90625 -29.9375 C 18.296875 -30.183594 17.667969 -30.382812 17.015625 -30.539062 C 16.351562 -30.699219 15.683594 -30.820312 15.019531 -30.898438 C 14.355469 -30.980469 13.777344 -31.019531 13.289062 -31.019531 C 11.648438 -31.019531 10.226562 -30.796875 9.027344 -30.355469 C 7.84375 -29.917969 6.867188 -29.34375 6.09375 -28.632812 C 5.335938 -27.933594 4.769531 -27.140625 4.394531 -26.25 C 4.015625 -25.347656 3.824219 -24.40625 3.824219 -23.433594 Z M 3.824219 -23.433594 "/></g></g></g><g fill="#75b523" fill-opacity="1"><g transform="translate(154.268156, 35.780345)"><g><path d="M 9.09375 -33.640625 C 10.207031 -33.640625 11.007812 -33.332031 11.496094 -32.710938 C 11.890625 -32.207031 12.089844 -31.652344 12.089844 -31.039062 C 12.089844 -30.628906 12.011719 -30.253906 11.859375 -29.917969 C 11.664062 -29.488281 11.367188 -29.152344 10.964844 -28.914062 C 10.6875 -28.746094 10.390625 -28.59375 10.066406 -28.449219 L 9.988281 -28.417969 C 9.660156 -28.289062 9.355469 -28.160156 9.082031 -28.023438 C 9.3125 -28.136719 9.464844 -28.289062 9.53125 -28.476562 C 9.515625 -28.4375 9.507812 -28.328125 9.507812 -28.15625 L 9.507812 -18.535156 L 7.871094 -18.535156 L 7.871094 -20.175781 L 26.800781 -20.175781 L 26.800781 -18.535156 L 25.160156 -18.535156 L 25.160156 -28.984375 C 25.160156 -28.773438 25.230469 -28.570312 25.371094 -28.378906 C 25.515625 -28.183594 25.6875 -28.054688 25.890625 -27.992188 C 25.640625 -28.070312 25.359375 -28.148438 25.050781 -28.230469 C 24.574219 -28.355469 24.132812 -28.535156 23.726562 -28.769531 C 23.300781 -29.015625 22.976562 -29.359375 22.761719 -29.804688 C 22.582031 -30.171875 22.492188 -30.585938 22.492188 -31.039062 C 22.492188 -31.652344 22.691406 -32.207031 23.085938 -32.710938 C 23.574219 -33.332031 24.375 -33.640625 25.488281 -33.640625 L 32.046875 -33.640625 C 33.160156 -33.640625 33.960938 -33.332031 34.449219 -32.710938 C 34.84375 -32.207031 35.039062 -31.652344 35.039062 -31.039062 C 35.039062 -30.570312 34.949219 -30.148438 34.769531 -29.78125 C 34.535156 -29.292969 34.171875 -28.9375 33.6875 -28.707031 C 33.316406 -28.53125 32.914062 -28.386719 32.480469 -28.273438 C 32.332031 -28.234375 32.195312 -28.171875 32.074219 -28.089844 C 32.230469 -28.195312 32.332031 -28.320312 32.382812 -28.460938 L 32.382812 -28.453125 C 32.375 -28.410156 32.375 -28.355469 32.375 -28.285156 L 32.375 -3.453125 C 32.375 -3.511719 32.355469 -3.578125 32.320312 -3.65625 C 32.269531 -3.757812 32.203125 -3.839844 32.121094 -3.898438 C 32.28125 -3.78125 32.464844 -3.683594 32.664062 -3.601562 C 33.058594 -3.449219 33.417969 -3.285156 33.75 -3.113281 C 34.144531 -2.902344 34.457031 -2.621094 34.683594 -2.265625 C 34.921875 -1.886719 35.039062 -1.46875 35.039062 -1.003906 C 35.039062 -0.121094 34.707031 0.570312 34.039062 1.066406 C 33.523438 1.449219 32.859375 1.640625 32.046875 1.640625 L 25.53125 1.640625 C 24.550781 1.640625 23.808594 1.40625 23.304688 0.941406 C 22.765625 0.441406 22.492188 -0.207031 22.492188 -1.003906 C 22.492188 -1.394531 22.566406 -1.75 22.707031 -2.078125 C 22.878906 -2.472656 23.136719 -2.792969 23.484375 -3.039062 C 23.847656 -3.296875 24.285156 -3.496094 24.792969 -3.636719 L 25.226562 -2.054688 L 24.707031 -3.609375 C 24.980469 -3.703125 25.21875 -3.777344 25.421875 -3.839844 C 25.320312 -3.808594 25.238281 -3.753906 25.164062 -3.675781 C 25.132812 -3.640625 25.109375 -3.605469 25.09375 -3.574219 C 25.097656 -3.582031 25.101562 -3.601562 25.109375 -3.628906 C 25.144531 -3.75 25.160156 -3.953125 25.160156 -4.242188 L 25.160156 -16.261719 L 26.800781 -16.261719 L 26.800781 -14.625 L 7.871094 -14.625 L 7.871094 -16.261719 L 9.507812 -16.261719 L 9.507812 -3.058594 C 9.507812 -3.269531 9.445312 -3.46875 9.316406 -3.65625 C 9.207031 -3.8125 9.078125 -3.925781 8.929688 -3.988281 C 9.128906 -3.902344 9.367188 -3.816406 9.636719 -3.734375 C 10.105469 -3.589844 10.527344 -3.402344 10.910156 -3.167969 C 11.304688 -2.929688 11.601562 -2.609375 11.808594 -2.207031 C 11.996094 -1.847656 12.089844 -1.445312 12.089844 -1.003906 C 12.089844 -0.207031 11.816406 0.441406 11.277344 0.941406 C 10.773438 1.40625 10.03125 1.640625 9.050781 1.640625 L 2.667969 1.640625 C 1.558594 1.640625 0.753906 1.324219 0.25 0.695312 C -0.164062 0.179688 -0.371094 -0.390625 -0.371094 -1.003906 C -0.371094 -1.480469 -0.273438 -1.902344 -0.078125 -2.273438 C 0.171875 -2.75 0.546875 -3.09375 1.046875 -3.304688 C 1.394531 -3.449219 1.777344 -3.578125 2.1875 -3.683594 C 2.320312 -3.71875 2.4375 -3.777344 2.546875 -3.855469 C 2.414062 -3.757812 2.328125 -3.648438 2.285156 -3.527344 C 2.292969 -3.546875 2.296875 -3.609375 2.296875 -3.714844 L 2.296875 -28.941406 C 2.296875 -28.75 2.355469 -28.570312 2.472656 -28.394531 C 2.585938 -28.226562 2.722656 -28.109375 2.882812 -28.042969 C 2.660156 -28.136719 2.40625 -28.226562 2.125 -28.3125 C 1.691406 -28.445312 1.289062 -28.609375 0.917969 -28.800781 C 0.480469 -29.03125 0.148438 -29.363281 -0.078125 -29.792969 C -0.273438 -30.164062 -0.371094 -30.582031 -0.371094 -31.039062 C -0.371094 -31.730469 -0.140625 -32.328125 0.324219 -32.828125 C 0.824219 -33.371094 1.605469 -33.640625 2.667969 -33.640625 Z M 9.09375 -30.363281 L 2.667969 -30.363281 C 2.511719 -30.363281 2.402344 -30.355469 2.34375 -30.339844 C 2.46875 -30.371094 2.601562 -30.460938 2.734375 -30.605469 C 2.851562 -30.730469 2.90625 -30.875 2.90625 -31.039062 C 2.90625 -31.121094 2.878906 -31.214844 2.820312 -31.324219 C 2.734375 -31.492188 2.609375 -31.621094 2.445312 -31.703125 C 2.632812 -31.605469 2.84375 -31.523438 3.078125 -31.449219 C 3.46875 -31.332031 3.828125 -31.203125 4.15625 -31.066406 C 4.59375 -30.882812 4.9375 -30.605469 5.1875 -30.234375 C 5.445312 -29.855469 5.574219 -29.421875 5.574219 -28.941406 L 5.574219 -3.714844 C 5.574219 -2.582031 5.214844 -1.746094 4.492188 -1.214844 C 4.046875 -0.886719 3.554688 -0.652344 3.015625 -0.511719 C 2.753906 -0.445312 2.523438 -0.367188 2.320312 -0.28125 C 2.542969 -0.375 2.707031 -0.527344 2.820312 -0.742188 C 2.878906 -0.851562 2.90625 -0.9375 2.90625 -1.003906 C 2.90625 -1.15625 2.875 -1.269531 2.808594 -1.351562 C 2.679688 -1.515625 2.542969 -1.617188 2.398438 -1.65625 C 2.441406 -1.644531 2.53125 -1.640625 2.667969 -1.640625 L 9.050781 -1.640625 C 9.199219 -1.640625 9.304688 -1.648438 9.367188 -1.660156 C 9.273438 -1.640625 9.167969 -1.574219 9.050781 -1.46875 C 8.960938 -1.378906 8.890625 -1.28125 8.847656 -1.164062 C 8.820312 -1.101562 8.808594 -1.046875 8.808594 -1.003906 C 8.808594 -0.914062 8.835938 -0.816406 8.890625 -0.710938 C 8.96875 -0.5625 9.070312 -0.453125 9.199219 -0.371094 C 9.058594 -0.460938 8.882812 -0.535156 8.683594 -0.59375 C 8.28125 -0.71875 7.921875 -0.851562 7.597656 -0.992188 C 7.1875 -1.175781 6.859375 -1.441406 6.621094 -1.789062 C 6.359375 -2.164062 6.230469 -2.585938 6.230469 -3.058594 L 6.230469 -17.902344 L 28.4375 -17.902344 L 28.4375 -4.242188 C 28.4375 -3.65625 28.382812 -3.160156 28.269531 -2.753906 C 28.128906 -2.242188 27.90625 -1.820312 27.601562 -1.484375 C 27.269531 -1.113281 26.863281 -0.855469 26.386719 -0.707031 C 26.207031 -0.652344 25.996094 -0.582031 25.746094 -0.5 L 25.699219 -0.484375 L 25.65625 -0.472656 C 25.523438 -0.4375 25.4375 -0.402344 25.390625 -0.371094 C 25.535156 -0.472656 25.640625 -0.605469 25.710938 -0.765625 C 25.75 -0.855469 25.773438 -0.9375 25.773438 -1.003906 C 25.773438 -1.046875 25.761719 -1.101562 25.734375 -1.164062 C 25.691406 -1.28125 25.621094 -1.378906 25.527344 -1.46875 C 25.414062 -1.574219 25.308594 -1.640625 25.214844 -1.660156 C 25.277344 -1.648438 25.382812 -1.640625 25.53125 -1.640625 L 32.046875 -1.640625 C 32.136719 -1.640625 32.203125 -1.644531 32.246094 -1.65625 C 32.203125 -1.644531 32.148438 -1.613281 32.085938 -1.566406 C 31.96875 -1.480469 31.882812 -1.371094 31.820312 -1.238281 C 31.78125 -1.148438 31.761719 -1.070312 31.761719 -1.003906 C 31.761719 -0.835938 31.8125 -0.667969 31.914062 -0.511719 C 32 -0.375 32.101562 -0.273438 32.222656 -0.210938 C 32 -0.328125 31.75 -0.441406 31.46875 -0.550781 C 31 -0.734375 30.570312 -0.96875 30.175781 -1.257812 C 29.457031 -1.792969 29.09375 -2.523438 29.09375 -3.453125 L 29.09375 -28.285156 C 29.09375 -29.445312 29.472656 -30.28125 30.222656 -30.796875 C 30.65625 -31.09375 31.132812 -31.3125 31.652344 -31.445312 C 31.890625 -31.507812 32.101562 -31.582031 32.285156 -31.667969 C 32.074219 -31.570312 31.921875 -31.421875 31.824219 -31.21875 C 31.792969 -31.15625 31.773438 -31.101562 31.765625 -31.050781 L 31.761719 -31.039062 C 31.761719 -30.894531 31.796875 -30.777344 31.871094 -30.683594 C 32.015625 -30.5 32.167969 -30.390625 32.328125 -30.34375 C 32.285156 -30.355469 32.191406 -30.363281 32.046875 -30.363281 L 25.488281 -30.363281 C 25.34375 -30.363281 25.25 -30.355469 25.207031 -30.34375 C 25.367188 -30.390625 25.519531 -30.5 25.664062 -30.683594 C 25.734375 -30.777344 25.773438 -30.894531 25.773438 -31.039062 C 25.773438 -31.089844 25.75 -31.15625 25.710938 -31.238281 C 25.632812 -31.398438 25.519531 -31.519531 25.371094 -31.605469 C 25.519531 -31.519531 25.6875 -31.453125 25.878906 -31.402344 C 26.242188 -31.308594 26.574219 -31.214844 26.878906 -31.117188 C 27.359375 -30.964844 27.738281 -30.699219 28.019531 -30.3125 C 28.300781 -29.929688 28.4375 -29.488281 28.4375 -28.984375 L 28.4375 -16.898438 L 6.230469 -16.898438 L 6.230469 -28.15625 C 6.230469 -29.558594 6.691406 -30.492188 7.617188 -30.953125 C 7.984375 -31.136719 8.382812 -31.3125 8.8125 -31.476562 L 9.398438 -29.949219 L 8.734375 -31.445312 C 8.933594 -31.535156 9.117188 -31.628906 9.277344 -31.726562 C 9.09375 -31.617188 8.960938 -31.464844 8.875 -31.277344 C 8.832031 -31.179688 8.808594 -31.101562 8.808594 -31.039062 C 8.808594 -30.894531 8.847656 -30.777344 8.917969 -30.683594 C 9.0625 -30.5 9.214844 -30.390625 9.375 -30.34375 C 9.332031 -30.355469 9.238281 -30.363281 9.09375 -30.363281 Z M 9.09375 -30.363281 "/></g></g></g><g fill="#75b523" fill-opacity="1"><g transform="translate(197.591289, 35.780345)"><g/></g></g><g fill="#6b9a5f" fill-opacity="1"><g transform="translate(2.355877, 35.780345)"><g><path d="M 25.875 -32 C 25.96875 -32 26.09375 -31.988281 26.25 -31.96875 C 26.414062 -31.957031 26.570312 -31.910156 26.71875 -31.828125 C 26.863281 -31.742188 26.984375 -31.59375 27.078125 -31.375 C 27.179688 -31.15625 27.25 -30.835938 27.28125 -30.421875 C 27.3125 -30.078125 27.390625 -29.640625 27.515625 -29.109375 C 27.648438 -28.585938 27.71875 -27.976562 27.71875 -27.28125 C 27.71875 -26.925781 27.628906 -26.671875 27.453125 -26.515625 C 27.273438 -26.359375 27.070312 -26.28125 26.84375 -26.28125 C 26.46875 -26.28125 26.109375 -26.460938 25.765625 -26.828125 C 25.429688 -27.191406 24.96875 -27.585938 24.375 -28.015625 C 23.78125 -28.453125 22.976562 -28.851562 21.96875 -29.21875 C 20.957031 -29.582031 19.609375 -29.765625 17.921875 -29.765625 C 17.078125 -29.765625 16.535156 -29.617188 16.296875 -29.328125 C 16.066406 -29.035156 15.953125 -28.394531 15.953125 -27.40625 L 15.953125 -4.28125 C 15.953125 -3.519531 16.003906 -3.03125 16.109375 -2.8125 C 16.210938 -2.59375 16.425781 -2.425781 16.75 -2.3125 C 17.125 -2.164062 17.519531 -2.015625 17.9375 -1.859375 C 18.363281 -1.703125 18.578125 -1.414062 18.578125 -1 C 18.578125 -0.6875 18.484375 -0.441406 18.296875 -0.265625 C 18.109375 -0.0859375 17.738281 0 17.1875 0 L 10.796875 0 C 9.835938 0 9.359375 -0.332031 9.359375 -1 C 9.359375 -1.320312 9.488281 -1.5625 9.75 -1.71875 C 10.007812 -1.882812 10.316406 -2.007812 10.671875 -2.09375 C 10.898438 -2.15625 11.101562 -2.234375 11.28125 -2.328125 C 11.457031 -2.429688 11.59375 -2.570312 11.6875 -2.75 C 11.789062 -2.925781 11.867188 -3.164062 11.921875 -3.46875 C 11.984375 -3.78125 12.015625 -4.179688 12.015625 -4.671875 L 12.015625 -27.40625 C 12.015625 -28.394531 11.898438 -29.035156 11.671875 -29.328125 C 11.441406 -29.617188 10.90625 -29.765625 10.0625 -29.765625 C 8.332031 -29.765625 6.972656 -29.582031 5.984375 -29.21875 C 4.992188 -28.851562 4.195312 -28.453125 3.59375 -28.015625 C 3 -27.585938 2.535156 -27.191406 2.203125 -26.828125 C 1.867188 -26.460938 1.515625 -26.28125 1.140625 -26.28125 C 0.898438 -26.28125 0.691406 -26.351562 0.515625 -26.5 C 0.347656 -26.644531 0.265625 -26.90625 0.265625 -27.28125 C 0.265625 -27.75 0.320312 -28.296875 0.4375 -28.921875 C 0.550781 -29.546875 0.640625 -30.046875 0.703125 -30.421875 C 0.753906 -30.984375 0.875 -31.382812 1.0625 -31.625 C 1.257812 -31.875 1.601562 -32 2.09375 -32 Z M 25.875 -32 "/></g></g></g><g fill="#6b9a5f" fill-opacity="1"><g transform="translate(38.68102, 35.780345)"><g><path d="M 7.90625 -16.046875 C 8.695312 -16.160156 9.585938 -16.289062 10.578125 -16.4375 C 11.566406 -16.582031 12.570312 -16.78125 13.59375 -17.03125 C 14.613281 -17.28125 15.617188 -17.585938 16.609375 -17.953125 C 17.597656 -18.316406 18.472656 -18.773438 19.234375 -19.328125 C 19.992188 -19.878906 20.601562 -20.546875 21.0625 -21.328125 C 21.53125 -22.117188 21.765625 -23.050781 21.765625 -24.125 C 21.765625 -25.382812 21.46875 -26.378906 20.875 -27.109375 C 20.28125 -27.835938 19.519531 -28.394531 18.59375 -28.78125 C 17.675781 -29.175781 16.675781 -29.429688 15.59375 -29.546875 C 14.519531 -29.671875 13.503906 -29.734375 12.546875 -29.734375 C 11.640625 -29.734375 10.890625 -29.703125 10.296875 -29.640625 C 9.703125 -29.578125 9.226562 -29.4375 8.875 -29.21875 C 8.519531 -29 8.269531 -28.691406 8.125 -28.296875 C 7.976562 -27.910156 7.90625 -27.394531 7.90625 -26.75 Z M 16.65625 -32 C 17.675781 -32 18.742188 -31.890625 19.859375 -31.671875 C 20.984375 -31.453125 22.019531 -31.054688 22.96875 -30.484375 C 23.914062 -29.921875 24.695312 -29.148438 25.3125 -28.171875 C 25.925781 -27.203125 26.234375 -25.972656 26.234375 -24.484375 C 26.234375 -22.554688 25.554688 -20.898438 24.203125 -19.515625 C 22.847656 -18.128906 21.117188 -16.988281 19.015625 -16.09375 C 19.921875 -15.007812 20.738281 -13.910156 21.46875 -12.796875 C 22.195312 -11.691406 22.835938 -10.628906 23.390625 -9.609375 C 23.941406 -8.597656 24.425781 -7.65625 24.84375 -6.78125 C 25.269531 -5.90625 25.628906 -5.144531 25.921875 -4.5 C 26.210938 -3.863281 26.503906 -3.347656 26.796875 -2.953125 C 27.085938 -2.554688 27.539062 -2.210938 28.15625 -1.921875 C 28.5625 -1.722656 28.859375 -1.59375 29.046875 -1.53125 C 29.234375 -1.46875 29.328125 -1.25 29.328125 -0.875 C 29.328125 -0.644531 29.253906 -0.441406 29.109375 -0.265625 C 28.960938 -0.0859375 28.613281 0 28.0625 0 L 21.15625 0 C 20.425781 0 19.988281 -0.113281 19.84375 -0.34375 C 19.695312 -0.582031 19.625 -0.773438 19.625 -0.921875 C 19.625 -1.265625 19.738281 -1.507812 19.96875 -1.65625 C 20.207031 -1.800781 20.460938 -1.9375 20.734375 -2.0625 C 21.015625 -2.195312 21.269531 -2.351562 21.5 -2.53125 C 21.738281 -2.707031 21.859375 -3 21.859375 -3.40625 C 21.859375 -4.019531 21.585938 -4.875 21.046875 -5.96875 C 20.503906 -7.0625 19.863281 -8.195312 19.125 -9.375 C 18.382812 -10.550781 17.625 -11.664062 16.84375 -12.71875 C 16.070312 -13.769531 15.457031 -14.53125 15 -15 C 13.800781 -14.707031 12.625 -14.457031 11.46875 -14.25 C 10.320312 -14.050781 9.132812 -13.878906 7.90625 -13.734375 L 7.90625 -3.015625 C 7.90625 -2.753906 8.035156 -2.5625 8.296875 -2.4375 C 8.566406 -2.320312 8.851562 -2.210938 9.15625 -2.109375 C 9.46875 -2.015625 9.753906 -1.882812 10.015625 -1.71875 C 10.273438 -1.5625 10.40625 -1.3125 10.40625 -0.96875 C 10.40625 -0.644531 10.300781 -0.398438 10.09375 -0.234375 C 9.894531 -0.078125 9.546875 0 9.046875 0 L 2.75 0 C 2.164062 0 1.785156 -0.0976562 1.609375 -0.296875 C 1.441406 -0.503906 1.359375 -0.726562 1.359375 -0.96875 C 1.359375 -1.40625 1.53125 -1.695312 1.875 -1.84375 C 2.226562 -1.988281 2.59375 -2.128906 2.96875 -2.265625 C 3.375 -2.410156 3.644531 -2.628906 3.78125 -2.921875 C 3.914062 -3.210938 3.984375 -3.785156 3.984375 -4.640625 L 3.984375 -27.234375 C 3.984375 -27.734375 3.96875 -28.132812 3.9375 -28.4375 C 3.90625 -28.738281 3.859375 -28.976562 3.796875 -29.15625 C 3.742188 -29.332031 3.644531 -29.460938 3.5 -29.546875 C 3.351562 -29.640625 3.175781 -29.710938 2.96875 -29.765625 C 2.5625 -29.890625 2.175781 -30.007812 1.8125 -30.125 C 1.445312 -30.238281 1.265625 -30.53125 1.265625 -31 C 1.265625 -31.320312 1.359375 -31.566406 1.546875 -31.734375 C 1.742188 -31.910156 2.117188 -32 2.671875 -32 Z M 16.65625 -32 "/></g></g></g><g fill="#6b9a5f" fill-opacity="1"><g transform="translate(76.758107, 35.780345)"><g/></g></g><g fill="#6b9a5f" fill-opacity="1"><g transform="translate(98.22168, 35.780345)"><g/></g></g><g fill="#6b9a5f" fill-opacity="1"><g transform="translate(119.691435, 35.780345)"><g><path d="M 2.1875 -23.4375 C 2.1875 -24.625 2.414062 -25.769531 2.875 -26.875 C 3.34375 -27.988281 4.046875 -28.972656 4.984375 -29.828125 C 5.921875 -30.691406 7.078125 -31.378906 8.453125 -31.890625 C 9.835938 -32.398438 11.453125 -32.65625 13.296875 -32.65625 C 13.847656 -32.65625 14.488281 -32.609375 15.21875 -32.515625 C 15.945312 -32.429688 16.675781 -32.300781 17.40625 -32.125 C 18.132812 -31.957031 18.835938 -31.734375 19.515625 -31.453125 C 20.203125 -31.179688 20.804688 -30.867188 21.328125 -30.515625 C 21.503906 -30.367188 21.691406 -30.207031 21.890625 -30.03125 C 22.097656 -29.851562 22.234375 -29.648438 22.296875 -29.421875 C 22.359375 -29.046875 22.394531 -28.59375 22.40625 -28.0625 C 22.414062 -27.539062 22.421875 -27.03125 22.421875 -26.53125 C 22.421875 -26.300781 22.382812 -26.046875 22.3125 -25.765625 C 22.238281 -25.492188 22.046875 -25.359375 21.734375 -25.359375 C 21.410156 -25.359375 21.050781 -25.617188 20.65625 -26.140625 C 20.257812 -26.671875 19.726562 -27.253906 19.0625 -27.890625 C 18.394531 -28.535156 17.519531 -29.117188 16.4375 -29.640625 C 15.363281 -30.160156 13.960938 -30.421875 12.234375 -30.421875 C 11.453125 -30.421875 10.679688 -30.296875 9.921875 -30.046875 C 9.160156 -29.804688 8.484375 -29.453125 7.890625 -28.984375 C 7.296875 -28.515625 6.820312 -27.945312 6.46875 -27.28125 C 6.125 -26.613281 5.953125 -25.867188 5.953125 -25.046875 C 5.953125 -23.828125 6.226562 -22.851562 6.78125 -22.125 C 7.332031 -21.394531 8.050781 -20.8125 8.9375 -20.375 C 9.832031 -19.9375 10.851562 -19.585938 12 -19.328125 C 13.15625 -19.066406 14.335938 -18.796875 15.546875 -18.515625 C 16.753906 -18.234375 17.929688 -17.90625 19.078125 -17.53125 C 20.234375 -17.15625 21.253906 -16.613281 22.140625 -15.90625 C 23.035156 -15.207031 23.757812 -14.304688 24.3125 -13.203125 C 24.863281 -12.097656 25.140625 -10.6875 25.140625 -8.96875 C 25.140625 -8 24.898438 -6.953125 24.421875 -5.828125 C 23.941406 -4.710938 23.195312 -3.671875 22.1875 -2.703125 C 21.175781 -1.742188 19.890625 -0.941406 18.328125 -0.296875 C 16.773438 0.335938 14.9375 0.65625 12.8125 0.65625 C 10.476562 0.65625 8.546875 0.328125 7.015625 -0.328125 C 5.484375 -0.984375 4.273438 -1.738281 3.390625 -2.59375 C 2.503906 -3.457031 1.878906 -4.316406 1.515625 -5.171875 C 1.148438 -6.035156 0.96875 -6.6875 0.96875 -7.125 C 0.96875 -7.476562 1.0625 -7.800781 1.25 -8.09375 C 1.4375 -8.382812 1.734375 -8.53125 2.140625 -8.53125 C 2.460938 -8.53125 2.734375 -8.421875 2.953125 -8.203125 C 3.171875 -7.984375 3.394531 -7.695312 3.625 -7.34375 C 3.914062 -6.84375 4.300781 -6.265625 4.78125 -5.609375 C 5.269531 -4.960938 5.882812 -4.335938 6.625 -3.734375 C 7.363281 -3.140625 8.28125 -2.640625 9.375 -2.234375 C 10.46875 -1.828125 11.785156 -1.625 13.328125 -1.625 C 14.347656 -1.625 15.359375 -1.757812 16.359375 -2.03125 C 17.367188 -2.3125 18.273438 -2.734375 19.078125 -3.296875 C 19.878906 -3.867188 20.523438 -4.582031 21.015625 -5.4375 C 21.515625 -6.300781 21.765625 -7.300781 21.765625 -8.4375 C 21.765625 -9.601562 21.476562 -10.539062 20.90625 -11.25 C 20.34375 -11.96875 19.601562 -12.5625 18.6875 -13.03125 C 17.769531 -13.5 16.726562 -13.878906 15.5625 -14.171875 C 14.394531 -14.460938 13.195312 -14.742188 11.96875 -15.015625 C 10.75 -15.296875 9.546875 -15.617188 8.359375 -15.984375 C 7.179688 -16.347656 6.132812 -16.84375 5.21875 -17.46875 C 4.300781 -18.09375 3.566406 -18.878906 3.015625 -19.828125 C 2.460938 -20.773438 2.1875 -21.976562 2.1875 -23.4375 Z M 2.1875 -23.4375 "/></g></g></g><g fill="#6b9a5f" fill-opacity="1"><g transform="translate(154.268156, 35.780345)"><g><path d="M 9.09375 -32 C 9.675781 -32 10.046875 -31.894531 10.203125 -31.6875 C 10.367188 -31.488281 10.453125 -31.273438 10.453125 -31.046875 C 10.453125 -30.691406 10.34375 -30.445312 10.125 -30.3125 C 9.90625 -30.1875 9.664062 -30.066406 9.40625 -29.953125 C 9.019531 -29.804688 8.664062 -29.648438 8.34375 -29.484375 C 8.03125 -29.328125 7.875 -28.882812 7.875 -28.15625 L 7.875 -18.53125 L 26.796875 -18.53125 L 26.796875 -28.984375 C 26.796875 -29.273438 26.65625 -29.460938 26.375 -29.546875 C 26.101562 -29.640625 25.800781 -29.726562 25.46875 -29.8125 C 25.132812 -29.90625 24.828125 -30.03125 24.546875 -30.1875 C 24.265625 -30.34375 24.125 -30.628906 24.125 -31.046875 C 24.125 -31.273438 24.203125 -31.488281 24.359375 -31.6875 C 24.523438 -31.894531 24.898438 -32 25.484375 -32 L 32.046875 -32 C 32.628906 -32 33 -31.894531 33.15625 -31.6875 C 33.320312 -31.488281 33.40625 -31.273438 33.40625 -31.046875 C 33.40625 -30.609375 33.265625 -30.320312 32.984375 -30.1875 C 32.710938 -30.050781 32.40625 -29.941406 32.0625 -29.859375 C 31.726562 -29.773438 31.421875 -29.632812 31.140625 -29.4375 C 30.867188 -29.25 30.734375 -28.863281 30.734375 -28.28125 L 30.734375 -3.453125 C 30.734375 -3.078125 30.867188 -2.785156 31.140625 -2.578125 C 31.421875 -2.367188 31.726562 -2.195312 32.0625 -2.0625 C 32.40625 -1.9375 32.710938 -1.800781 32.984375 -1.65625 C 33.265625 -1.507812 33.40625 -1.289062 33.40625 -1 C 33.40625 -0.332031 32.953125 0 32.046875 0 L 25.53125 0 C 24.976562 0 24.601562 -0.0859375 24.40625 -0.265625 C 24.21875 -0.441406 24.125 -0.6875 24.125 -1 C 24.125 -1.320312 24.226562 -1.554688 24.4375 -1.703125 C 24.644531 -1.847656 24.90625 -1.96875 25.21875 -2.0625 C 25.488281 -2.144531 25.71875 -2.210938 25.90625 -2.265625 C 26.09375 -2.328125 26.25 -2.429688 26.375 -2.578125 C 26.507812 -2.722656 26.613281 -2.925781 26.6875 -3.1875 C 26.757812 -3.445312 26.796875 -3.796875 26.796875 -4.234375 L 26.796875 -16.265625 L 7.875 -16.265625 L 7.875 -3.0625 C 7.875 -2.800781 8.003906 -2.609375 8.265625 -2.484375 C 8.523438 -2.367188 8.820312 -2.257812 9.15625 -2.15625 C 9.488281 -2.0625 9.785156 -1.929688 10.046875 -1.765625 C 10.316406 -1.609375 10.453125 -1.351562 10.453125 -1 C 10.453125 -0.6875 10.351562 -0.441406 10.15625 -0.265625 C 9.96875 -0.0859375 9.597656 0 9.046875 0 L 2.671875 0 C 2.085938 0 1.707031 -0.109375 1.53125 -0.328125 C 1.351562 -0.546875 1.265625 -0.769531 1.265625 -1 C 1.265625 -1.414062 1.398438 -1.679688 1.671875 -1.796875 C 1.953125 -1.910156 2.257812 -2.007812 2.59375 -2.09375 C 2.9375 -2.1875 3.242188 -2.332031 3.515625 -2.53125 C 3.796875 -2.738281 3.9375 -3.132812 3.9375 -3.71875 L 3.9375 -28.9375 C 3.9375 -29.226562 3.796875 -29.429688 3.515625 -29.546875 C 3.242188 -29.671875 2.9375 -29.78125 2.59375 -29.875 C 2.257812 -29.976562 1.953125 -30.101562 1.671875 -30.25 C 1.398438 -30.394531 1.265625 -30.660156 1.265625 -31.046875 C 1.265625 -31.304688 1.351562 -31.53125 1.53125 -31.71875 C 1.707031 -31.90625 2.085938 -32 2.671875 -32 Z M 9.09375 -32 "/></g></g></g><g fill="#6b9a5f" fill-opacity="1"><g transform="translate(197.591289, 35.780345)"><g/></g></g></g></g></g><path fill="#75b523" d="M 105.316406 7.316406 C 105.648438 8.863281 104.664062 10.390625 103.117188 10.722656 L 75.550781 16.679688 L 65.09375 18.9375 C 63.546875 19.273438 62.019531 18.289062 61.683594 16.742188 L 61.640625 16.53125 C 61.304688 14.984375 62.289062 13.457031 63.835938 13.121094 L 72.324219 11.289062 L 93.375 6.738281 L 101.859375 4.90625 C 103.410156 4.574219 104.933594 5.554688 105.269531 7.105469 Z M 105.316406 7.316406 " fill-opacity="1" fill-rule="nonzero"/><g clip-path="url(#323b947f6c)"><path fill="#f4e6c5" d="M 113.667969 16.679688 L 110.578125 57.207031 C 110.578125 59.867188 108.421875 62.023438 105.761719 62.023438 L 83.460938 62.023438 C 80.796875 62.023438 78.640625 59.867188 78.640625 57.207031 L 75.550781 16.679688 Z M 113.667969 16.679688 " fill-opacity="1" fill-rule="nonzero"/></g><g clip-path="url(#eb91c0e952)"><path fill="#75b523" d="M 105.761719 63.003906 L 83.460938 63.003906 C 80.273438 63.003906 77.683594 60.425781 77.660156 57.246094 L 74.574219 16.753906 C 74.554688 16.480469 74.648438 16.214844 74.832031 16.011719 C 75.019531 15.8125 75.277344 15.699219 75.550781 15.699219 L 113.667969 15.699219 C 113.941406 15.699219 114.203125 15.8125 114.390625 16.011719 C 114.574219 16.214844 114.667969 16.480469 114.648438 16.753906 L 111.5625 57.246094 C 111.539062 60.425781 108.945312 63.003906 105.761719 63.003906 Z M 76.609375 17.660156 L 79.621094 57.132812 C 79.621094 57.15625 79.625 57.179688 79.625 57.207031 C 79.625 59.320312 81.34375 61.042969 83.460938 61.042969 L 105.761719 61.042969 C 107.878906 61.042969 109.597656 59.320312 109.597656 57.207031 C 109.597656 57.179688 109.601562 57.15625 109.601562 57.132812 L 112.609375 17.660156 Z M 76.609375 17.660156 " fill-opacity="1" fill-rule="nonzero"/></g><path fill="#75b523" d="M 84.890625 53.335938 C 84.371094 53.335938 83.9375 52.921875 83.914062 52.398438 L 82.734375 26.394531 C 82.707031 25.855469 83.128906 25.394531 83.667969 25.371094 C 84.210938 25.347656 84.667969 25.765625 84.695312 26.308594 L 85.871094 52.308594 C 85.898438 52.851562 85.480469 53.308594 84.9375 53.332031 C 84.921875 53.332031 84.90625 53.335938 84.890625 53.335938 Z M 84.890625 53.335938 " fill-opacity="1" fill-rule="nonzero"/><path fill="#75b523" d="M 104.328125 53.335938 C 104.3125 53.335938 104.300781 53.332031 104.285156 53.332031 C 103.742188 53.308594 103.324219 52.851562 103.347656 52.308594 L 104.527344 26.308594 C 104.550781 25.765625 105.011719 25.347656 105.550781 25.371094 C 106.09375 25.394531 106.511719 25.855469 106.488281 26.394531 L 105.308594 52.398438 C 105.285156 52.921875 104.851562 53.335938 104.328125 53.335938 Z M 104.328125 53.335938 " fill-opacity="1" fill-rule="nonzero"/><path fill="#75b523" d="M 91.011719 53.335938 C 90.476562 53.335938 90.039062 52.90625 90.03125 52.371094 L 89.59375 26.367188 C 89.585938 25.824219 90.015625 25.378906 90.558594 25.371094 C 91.101562 25.359375 91.546875 25.792969 91.554688 26.335938 L 91.992188 52.335938 C 92.003906 52.878906 91.570312 53.324219 91.027344 53.332031 C 91.023438 53.335938 91.015625 53.335938 91.011719 53.335938 Z M 91.011719 53.335938 " fill-opacity="1" fill-rule="nonzero"/><path fill="#75b523" d="M 98.210938 53.335938 C 98.203125 53.335938 98.199219 53.335938 98.191406 53.335938 C 97.652344 53.324219 97.21875 52.878906 97.230469 52.335938 L 97.664062 26.335938 C 97.675781 25.792969 98.121094 25.359375 98.664062 25.371094 C 99.203125 25.378906 99.636719 25.824219 99.628906 26.367188 L 99.191406 52.371094 C 99.183594 52.90625 98.746094 53.335938 98.210938 53.335938 Z M 98.210938 53.335938 " fill-opacity="1" fill-rule="nonzero"/><g clip-path="url(#ed20e87a4a)"><path fill="#75b523" d="M 64.480469 19.988281 C 63.75 19.988281 63.03125 19.777344 62.402344 19.371094 C 61.539062 18.8125 60.945312 17.953125 60.726562 16.949219 L 60.679688 16.738281 C 60.464844 15.734375 60.652344 14.703125 61.207031 13.839844 C 61.765625 12.976562 62.625 12.378906 63.628906 12.164062 L 72.117188 10.328125 L 93.167969 5.78125 L 101.652344 3.949219 C 102.65625 3.730469 103.6875 3.917969 104.550781 4.476562 C 105.414062 5.03125 106.011719 5.890625 106.226562 6.898438 L 106.273438 7.109375 C 106.722656 9.183594 105.398438 11.234375 103.324219 11.683594 L 65.300781 19.898438 C 65.027344 19.957031 64.753906 19.988281 64.480469 19.988281 Z M 102.46875 5.824219 C 102.335938 5.824219 102.203125 5.835938 102.066406 5.867188 L 93.582031 7.699219 L 72.53125 12.246094 L 64.046875 14.082031 C 63.550781 14.1875 63.128906 14.480469 62.859375 14.902344 C 62.585938 15.328125 62.492188 15.832031 62.597656 16.324219 L 62.644531 16.535156 C 62.75 17.027344 63.042969 17.449219 63.464844 17.722656 C 63.890625 17.996094 64.394531 18.085938 64.886719 17.980469 L 102.910156 9.765625 C 103.925781 9.546875 104.574219 8.539062 104.355469 7.523438 L 104.308594 7.3125 C 104.203125 6.820312 103.910156 6.398438 103.488281 6.125 C 103.179688 5.925781 102.828125 5.824219 102.46875 5.824219 Z M 93.375 6.738281 Z M 93.375 6.738281 " fill-opacity="1" fill-rule="nonzero"/></g><g clip-path="url(#eeaca90907)"><path fill="#75b523" d="M 72.320312 12.269531 C 71.871094 12.269531 71.464844 11.957031 71.363281 11.496094 L 70.414062 7.097656 C 70.277344 6.464844 70.394531 5.8125 70.746094 5.265625 C 71.097656 4.71875 71.644531 4.34375 72.277344 4.207031 L 90.492188 0.269531 C 91.125 0.132812 91.777344 0.25 92.324219 0.605469 C 92.871094 0.957031 93.246094 1.5 93.382812 2.136719 L 94.335938 6.53125 C 94.449219 7.0625 94.113281 7.585938 93.582031 7.699219 C 93.054688 7.8125 92.53125 7.476562 92.417969 6.949219 L 91.464844 2.550781 C 91.429688 2.382812 91.320312 2.292969 91.261719 2.253906 C 91.199219 2.214844 91.074219 2.152344 90.90625 2.1875 L 72.691406 6.125 C 72.527344 6.160156 72.433594 6.269531 72.394531 6.328125 C 72.355469 6.390625 72.296875 6.519531 72.332031 6.683594 L 73.28125 11.082031 C 73.394531 11.609375 73.058594 12.132812 72.53125 12.246094 C 72.460938 12.261719 72.390625 12.269531 72.320312 12.269531 Z M 72.320312 12.269531 " fill-opacity="1" fill-rule="nonzero"/></g></g></g></svg>